<?xml version="1.0" encoding="UTF-8"?>
<svg width="16px" height="16px" viewBox="0 0 16 16" version="1.1" xmlns="http://www.w3.org/2000/svg" xmlns:xlink="http://www.w3.org/1999/xlink">
    <!-- Generator: Sketch 46.2 (44496) - http://www.bohemiancoding.com/sketch -->
    <title>heart</title>
    <desc>Created with Sketch.</desc>
    <defs></defs>
    <g id="Page-1" stroke="none" stroke-width="1" fill="none" fill-rule="evenodd">
        <g id="Our-Food-Ethos" transform="translate(-912.000000, -893.000000)" fill-rule="nonzero" fill="#444444">
            <g id="heart" transform="translate(912.000000, 893.000000)">
                <path d="M7.4,15.5 C6.6,14.8 0,9.3 0,5.1 C0,2.4 2.2,0.3 4.8,0.3 C6,0.3 7.1,0.8 8,1.5 C8.9,0.7 10,0.3 11.2,0.3 C13.9,0.3 16,2.5 16,5.1 C16,9.3 9.4,14.8 8.6,15.4 C8.3,15.8 7.7,15.8 7.4,15.5 Z M4.8,2.3 C3.3,2.3 2,3.6 2,5.1 C2,7.3 5.5,11.1 8,13.3 C10.1,11.4 14,7.5 14,5.1 C14,3.5 12.7,2.3 11.2,2.3 C10.3,2.3 9.4,2.8 8.9,3.6 C8.5,4.2 7.6,4.2 7.2,3.6 C6.6,2.8 5.8,2.3 4.8,2.3 Z" id="Shape"></path>
            </g>
        </g>
    </g>
</svg>