<?xml version="1.0" encoding="UTF-8"?>
<svg width="16px" height="16px" viewBox="0 0 16 16" version="1.1" xmlns="http://www.w3.org/2000/svg" xmlns:xlink="http://www.w3.org/1999/xlink">
    <!-- Generator: Sketch 46.2 (44496) - http://www.bohemiancoding.com/sketch -->
    <title>leaf</title>
    <desc>Created with Sketch.</desc>
    <defs></defs>
    <g id="Page-1" stroke="none" stroke-width="1" fill="none" fill-rule="evenodd">
        <g id="Our-Food-Ethos" transform="translate(-498.000000, -904.000000)" fill-rule="nonzero" fill="#444444">
            <g id="leaf" transform="translate(498.000000, 904.000000)">
                <path d="M14.9,0 C14.6,0 6.5,0.8 3.3,4 C0.5,6.8 1.1,10.5 2.1,12.5 L0.3,14.3 C-0.1,14.7 -0.1,15.3 0.3,15.7 C0.5,15.9 0.7,16 1,16 C1.3,16 1.5,15.9 1.7,15.7 L3.5,13.9 C4.4,14.3 5.7,14.7 7.1,14.7 C8.7,14.7 10.4,14.2 12,12.7 C15.4,9.3 16,1.4 16,1.1 C16,0.8 15.9,0.5 15.7,0.3 C15.5,0.1 15.2,0 14.9,0 Z M10.6,11.3 C8.7,13.2 6.4,12.8 5.1,12.4 L9.4,8 C9.8,7.6 9.8,7 9.4,6.6 C9,6.2 8.4,6.2 8,6.6 L3.6,11 C3.2,9.6 2.8,7.3 4.7,5.4 C6.6,3.5 11.2,2.5 13.9,2.1 C13.6,4.4 12.8,9.1 10.6,11.3 Z" id="Shape"></path>
            </g>
        </g>
    </g>
</svg>