<?xml version="1.0" encoding="UTF-8"?>
<svg width="131px" height="51px" viewBox="0 0 131 51" version="1.1" xmlns="http://www.w3.org/2000/svg" xmlns:xlink="http://www.w3.org/1999/xlink">
    <!-- Generator: Sketch 41.2 (35397) - http://www.bohemiancoding.com/sketch -->
    <title>Soulara_logo</title>
    <desc>Created with Sketch.</desc>
    <defs></defs>
    <g id="Page-1" stroke="none" stroke-width="1" fill="none" fill-rule="evenodd">
        <g id="Our-Ethos" transform="translate(-655.000000, -13.000000)">
            <g id="Soulara_logo" transform="translate(655.000000, 13.000000)">
                <g id="Page-1" fill="#2B2928">
                    <polygon id="Fill-1" points="25.0606904 4.43478264e-05 24.4202673 0.00481173913 24.52951 13.7376704 25.1697105 13.7327922"></polygon>
                    <polygon id="Fill-2" points="16.0164365 17.6068963 9.33714922 11.0390941 9.78625835 10.5834202 16.465657 17.1511115"></polygon>
                    <polygon id="Fill-3" points="14.5561247 19.5068348 9.99910913 16.5173478 10.3505568 15.9829565 14.9077951 18.9724435"></polygon>
                    <polygon id="Fill-4" points="13.5014143 21.6555978 8.44595768 19.6104978 8.68638085 19.0175674 13.7419488 21.0627783"></polygon>
                    <polygon id="Fill-5" points="12.8885412 23.968603 7.52773942 22.9490465 7.64700445 22.3209704 13.008029 23.3404161"></polygon>
                    <polygon id="Fill-6" points="7.70664811 29.8305874 7.5773608 29.204507 12.9213474 28.1002461 13.0506347 28.7263265"></polygon>
                    <polygon id="Fill-7" points="8.7982294 33.1173933 8.54834076 32.5284541 13.5707238 30.4033063 13.8206125 30.9921346"></polygon>
                    <polygon id="Fill-8" points="10.5100668 36.1253622 10.1507127 35.5960709 14.6660802 32.5347404 15.0254343 33.0640317"></polygon>
                    <polygon id="Fill-9" points="10.0317261 41.5262733 9.57548998 41.0775841 16.1496548 34.4053428 16.6060022 34.854032"></polygon>
                    <polygon id="Fill-10" points="15.5153007 40.8653909 14.9803341 40.5140452 17.9728731 35.96163 18.5077283 36.3129757"></polygon>
                    <polygon id="Fill-11" points="18.611559 42.416578 18.0181292 42.1763237 20.0653452 37.1258824 20.6587751 37.3661367"></polygon>
                    <polygon id="Fill-12" points="21.9472829 43.3343563 21.318441 43.2149498 22.3388196 37.8590628 22.9674388 37.9784693"></polygon>
                    <polygon id="Fill-13" points="28.2151336 43.2847311 27.1097884 37.9456963 27.7365145 37.8165333 28.8418597 43.155568"></polygon>
                    <polygon id="Fill-14" points="31.5421158 42.3142122 29.415167 37.29681 30.0046993 37.0472426 32.1316481 42.0646448"></polygon>
                    <polygon id="Fill-15" points="34.6133742 40.7141648 31.5427728 36.2031039 32.0719488 35.843443 35.1425501 40.3545039"></polygon>
                    <polygon id="Fill-16" points="40.100167 41.288203 33.4208797 34.7208443 33.8699889 34.2650596 40.5493875 40.8324183"></polygon>
                    <polygon id="Fill-17" points="39.5362027 35.8952302 34.9726169 32.8995346 35.3240646 32.3651433 39.8878731 35.3608389"></polygon>
                    <polygon id="Fill-18" points="41.2001002 32.8608411 36.1446437 30.8155193 36.3851782 30.2226998 41.4406347 32.2680215"></polygon>
                    <polygon id="Fill-19" points="42.2393875 29.557183 36.8785857 28.5376265 36.9978508 27.9095504 42.3588753 28.9289961"></polygon>
                    <polygon id="Fill-20" points="36.965167 23.777985 36.8358797 23.1519046 42.1798664 22.0476437 42.3091537 22.6737241"></polygon>
                    <polygon id="Fill-21" points="36.315657 21.4749802 36.0657684 20.8860411 41.0881514 18.761115 41.3380401 19.3500541"></polygon>
                    <polygon id="Fill-22" points="35.2273163 19.3431691 34.867294 18.814543 39.376314 15.7532126 39.7363363 16.2818387"></polygon>
                    <polygon id="Fill-23" points="33.7367261 17.466602 33.28049 17.0179128 39.8546548 10.3454498 40.3110022 10.794028"></polygon>
                    <polygon id="Fill-24" points="31.9201559 15.9165013 31.3851893 15.5651557 34.3777283 11.0131839 34.9125835 11.3643078"></polygon>
                    <polygon id="Fill-25" points="29.827706 14.7455857 29.2342762 14.5053313 31.2814922 9.46154217 31.874922 9.70179652"></polygon>
                    <polygon id="Fill-26" points="27.547706 14.0130926 26.9188641 13.8931317 27.9394655 8.54378609 28.5683073 8.66385783"></polygon>
                    <polygon id="Fill-27" points="22.1498886 14.0558328 21.0449889 8.72333935 21.6717149 8.59340022 22.7766147 13.9260046"></polygon>
                    <polygon id="Fill-28" points="19.8883519 14.8242587 17.7614031 9.8135087 18.3509354 9.56383043 20.4778842 14.5746913"></polygon>
                    <polygon id="Fill-29" points="17.8147439 16.0281802 14.7503786 11.5238824 15.2797773 11.1643324 18.3439198 15.6685193"></polygon>
                    <polygon id="Fill-30" points="0 25.9001172 0.00489977728 26.5396128 12.7336303 26.4387215 12.7285078 25.7992259"></polygon>
                    <polygon id="Fill-31" points="10.0317261 41.5262733 9.57548998 41.0775841 16.1496548 34.4053428 16.6060022 34.854032"></polygon>
                    <polygon id="Fill-32" points="24.7229399 38.1391526 24.8244989 50.9444765 25.464922 50.9393765 25.3632517 38.1342743"></polygon>
                    <polygon id="Fill-33" points="40.100167 41.288203 33.4208797 34.7208443 33.8699889 34.2650596 40.5493875 40.8324183"></polygon>
                    <polygon id="Fill-34" points="37.1544655 25.6057585 37.1593653 26.2454759 49.8943318 26.1446954 49.8893207 25.504978"></polygon>
                    <polygon id="Fill-35" points="33.7367261 17.466602 33.28049 17.0179128 39.8546548 10.3454498 40.3110022 10.794028"></polygon>
                </g>
                <path d="M65.9785156,30.1054688 C68.0644531,30.1054688 69.2304688,28.7226562 69.2304688,27.3632812 C69.2304688,25.96875 68.3457031,24.9667969 66.6699219,24.6386719 L65.4804688,24.4042969 C64.7246094,24.2578125 64.296875,23.6894531 64.296875,23.15625 C64.296875,22.4355469 64.9941406,21.796875 65.9140625,21.796875 C66.9101562,21.796875 67.5429688,22.5410156 67.7070312,23.2089844 L69.0839844,22.7753906 C68.890625,21.7617188 68.0175781,20.4667969 65.8847656,20.4667969 C64.1972656,20.4667969 62.7851562,21.7441406 62.7851562,23.2910156 C62.7851562,24.5214844 63.6230469,25.5410156 65.1640625,25.8515625 L66.3183594,26.0859375 C67.1152344,26.25 67.7070312,26.6835938 67.7070312,27.4570312 C67.7070312,28.2480469 66.9453125,28.7753906 66.0078125,28.7753906 C64.8828125,28.7753906 64.1328125,28.0664062 63.9277344,26.9707031 L62.4980469,27.3632812 C62.6386719,28.6875 63.7871094,30.1054688 65.9785156,30.1054688 Z M71.3847656,25.3242188 C71.3847656,28.0898438 73.5234375,30.1113281 76.1835938,30.1113281 C78.84375,30.1113281 81.0351562,28.0546875 81.0351562,25.2832031 C81.0351562,22.5410156 78.890625,20.4667969 76.2246094,20.4667969 C73.5644531,20.4667969 71.3847656,22.5820312 71.3847656,25.3242188 Z M72.9316406,25.2890625 C72.9316406,23.3730469 74.3613281,21.84375 76.2070312,21.84375 C78.046875,21.84375 79.4824219,23.3730469 79.4824219,25.2890625 C79.4824219,27.1933594 78.046875,28.734375 76.2070312,28.734375 C74.3613281,28.734375 72.9316406,27.1933594 72.9316406,25.2890625 Z M91.0117188,26.3554688 L91.0117188,20.6015625 L89.5351562,20.6015625 L89.5351562,26.4140625 C89.5351562,27.75 88.7558594,28.7285156 87.3671875,28.7285156 C86.0898438,28.7285156 85.1757812,27.8378906 85.1757812,26.3613281 L85.1757812,20.6015625 L83.6992188,20.6015625 L83.6992188,26.4199219 C83.6992188,28.4941406 84.8476562,30.1171875 87.3378906,30.1171875 C89.78125,30.1171875 91.0117188,28.5585938 91.0117188,26.3554688 Z M95.7734375,20.6015625 L94.296875,20.6015625 L94.296875,30 L100.015625,30 L100.015625,28.6289062 L95.7734375,28.6289062 L95.7734375,20.6015625 Z M102.720703,30 L103.587891,27.796875 L108.1875,27.796875 L109.042969,30 L110.583984,30 L106.78125,20.6015625 L105.035156,20.6015625 L101.214844,30 L102.720703,30 Z M107.677734,26.4785156 L104.109375,26.4785156 L105.890625,22.0195312 L107.677734,26.4785156 Z M114.273438,26.4316406 L116.230469,26.4316406 L118.128906,30 L119.757812,30 L117.677734,26.1328125 C118.914062,25.6933594 119.529297,24.6972656 119.529297,23.5019531 C119.529297,22.0371094 118.691406,20.6015625 116.330078,20.6015625 L112.796875,20.6015625 L112.796875,30 L114.273438,30 L114.273438,26.4316406 Z M116.171875,25.1074219 L114.273438,25.1074219 L114.273438,21.9667969 L116.171875,21.9667969 C117.712891,21.9667969 118.029297,22.8222656 118.029297,23.5371094 C118.029297,24.2695312 117.595703,25.1074219 116.171875,25.1074219 Z M122.744141,30 L123.611328,27.796875 L128.210938,27.796875 L129.066406,30 L130.607422,30 L126.804688,20.6015625 L125.058594,20.6015625 L121.238281,30 L122.744141,30 Z M127.701172,26.4785156 L124.132812,26.4785156 L125.914062,22.0195312 L127.701172,26.4785156 Z" id="SOULARA" fill="#000000"></path>
            </g>
        </g>
    </g>
</svg>