<?xml version="1.0" encoding="UTF-8"?>
<svg width="743px" height="327px" viewBox="0 0 743 327" version="1.1" xmlns="http://www.w3.org/2000/svg" xmlns:xlink="http://www.w3.org/1999/xlink">
    <!-- Generator: Sketch 45.2 (43514) - http://www.bohemiancoding.com/sketch -->
    <title>supply-chain</title>
    <desc>Created with Sketch.</desc>
    <defs></defs>
    <g id="Page-1" stroke="none" stroke-width="1" fill="none" fill-rule="evenodd">
        <g id="Our-Food-Ethos" transform="translate(-347.000000, -5245.000000)">
            <g id="Plant-Power-Directly" transform="translate(346.000000, 4908.000000)">
                <g id="supply-chain" transform="translate(0.000000, 337.000000)">
                    <g id="noun_1125471_cc" transform="translate(187.000000, 2.000000)" fill-rule="nonzero" fill="#000000">
                        <path d="M59,43.1 L38.7,43.1 L38.7,1.4 C38.7,0.8 38.3,0.4 37.7,0.4 C37.1,0.4 36.7,0.8 36.7,1.4 L36.7,43 L34.9,43 L34.9,22.5 C34.9,22.4 34.9,22.2 34.8,22.1 L26,3.3 C25.8,2.9 25.5,2.7 25.1,2.7 L1,2.7 C0.4,2.7 0,3.1 0,3.7 L0,44 C0,44.6 0.4,45 1,45 L2,45 C2.5,48.7 5.6,51.5 9.4,51.5 C13.2,51.5 16.3,48.7 16.8,45 L18.8,45 C19.3,48.7 22.4,51.5 26.2,51.5 C30,51.5 33.1,48.7 33.6,45 L34,45 L59,45 C59.6,45 60,44.6 60,44 C60,43.4 59.6,43.1 59,43.1 Z M9.4,49.6 C6.4,49.6 3.9,47.2 3.9,44.1 C3.9,41 6.3,38.6 9.4,38.6 C12.5,38.6 14.9,41 14.9,44.1 C14.9,47.2 12.4,49.6 9.4,49.6 Z M26.2,49.6 C23.2,49.6 20.7,47.2 20.7,44.1 C20.7,41 23.1,38.6 26.2,38.6 C29.3,38.6 31.7,41 31.7,44.1 C31.7,47.2 29.2,49.6 26.2,49.6 Z M32.9,41 C31.7,38.5 29.1,36.7 26.1,36.7 C22.4,36.7 19.3,39.5 18.7,43.1 L16.7,43.1 C16.2,39.5 13.1,36.7 9.3,36.7 C5.5,36.7 2.5,39.5 1.9,43.1 L2,43.1 L2,4.8 L24.5,4.8 L25.6,7.2 L8.1,7.2 C7.5,7.2 7.1,7.6 7.1,8.2 L7.1,29 C7.1,29.6 7.5,30 8.1,30 L32.9,30 L32.9,41 L32.9,41 Z M32.9,25.7 L27.3,17.5 L28.1,16.7 C28.5,16.3 28.5,15.7 28.1,15.3 C27.7,14.9 27.1,14.9 26.7,15.3 L23.6,18.4 C23.2,18.8 23.2,19.4 23.6,19.8 C23.8,20 24.1,20.1 24.3,20.1 C24.5,20.1 24.8,20 25,19.8 L25.8,19 L31.9,28 L9.1,28 L9.1,9.2 L26.6,9.2 L33,22.8 L33,25.7 L32.9,25.7 Z M17.6,24 L25.3,24 C25.9,24 26.3,24.4 26.3,25 C26.3,25.6 25.9,26 25.3,26 L16.9,26 C16.5,26 16.1,25.8 16,25.4 L11.4,14.1 C11.2,13.6 11.4,13 11.9,12.8 C12.4,12.6 13,12.8 13.2,13.3 L17.6,24 Z" id="Shape"></path>
                    </g>
                    <g id="noun_1063878_cc" transform="translate(316.000000, 2.000000)" fill-rule="nonzero" fill="#000000">
                        <g id="Group">
                            <path d="M43.846,3.135 L43.846,12.848 L0,0.156 L0,46.69 C0,47.328 0.516,47.844 1.154,47.844 C1.792,47.844 2.308,47.327 2.308,46.69 L2.308,3.226 L43.846,15.25 L43.846,46.69 C43.846,47.328 44.362,47.844 45,47.844 C45.638,47.844 46.154,47.327 46.154,46.69 L46.154,13.516 L46.154,6.016 L87.692,15.308 L87.692,46.69 C87.692,47.328 88.208,47.844 88.845,47.844 C89.484,47.844 89.999,47.327 89.999,46.69 L89.999,13.459 L43.846,3.135 Z" id="Shape"></path>
                            <path d="M40.385,16.69 L5.769,16.69 C5.131,16.69 4.615,17.206 4.615,17.844 L4.615,17.844 L4.615,17.844 L4.615,45.536 L4.615,45.536 L4.615,45.536 C4.615,46.175 5.131,46.69 5.769,46.69 L40.385,46.69 C41.023,46.69 41.539,46.174 41.539,45.536 L41.539,45.536 L41.539,45.536 L41.539,17.844 L41.539,17.844 L41.539,17.844 C41.539,17.207 41.022,16.69 40.385,16.69 Z M6.923,35.152 L6.923,32.844 L39.231,32.844 L39.231,35.152 L6.923,35.152 Z M39.231,37.46 L39.231,39.768 L6.923,39.768 L6.923,37.46 L39.231,37.46 Z M6.923,30.536 L6.923,28.228 L39.231,28.228 L39.231,30.536 L6.923,30.536 Z M6.923,25.921 L6.923,23.615 L39.231,23.615 L39.231,25.921 L6.923,25.921 Z M6.923,21.307 L6.923,18.998 L39.231,18.998 L39.231,21.307 L6.923,21.307 Z M6.923,42.075 L39.231,42.075 L39.231,44.383 L6.923,44.383 L6.923,42.075 Z" id="Shape"></path>
                            <path d="M76.154,28.229 L68.077,28.229 L65.77,28.229 L57.693,28.229 L57.693,36.306 L54.23,36.306 L54.23,46.69 L62.307,46.69 L64.615,46.69 L70.385,46.69 L72.693,46.69 L80.77,46.69 L80.77,36.306 L76.155,36.306 L76.155,28.229 L76.154,28.229 Z M68.077,30.536 L73.846,30.536 L73.846,36.306 L72.693,36.306 L70.385,36.306 L68.077,36.306 L68.077,30.536 Z M60,30.536 L65.77,30.536 L65.77,36.306 L64.616,36.306 L62.308,36.306 L60,36.306 L60,30.536 Z M62.308,44.383 L56.538,44.383 L56.538,38.613 L57.692,38.613 L62.307,38.613 L62.307,44.383 L62.308,44.383 Z M70.385,44.383 L64.615,44.383 L64.615,38.613 L65.769,38.613 L68.077,38.613 L70.385,38.613 L70.385,44.383 L70.385,44.383 Z M78.462,38.613 L78.462,44.383 L72.692,44.383 L72.692,38.613 L76.154,38.613 L78.462,38.613 Z" id="Shape"></path>
                            <path d="M84.23,16.69 L49.615,16.69 C48.977,16.69 48.462,17.206 48.462,17.844 L48.462,17.844 L48.462,17.844 L48.462,45.536 C48.462,46.175 48.978,46.69 49.615,46.69 C50.252,46.69 50.769,46.174 50.769,45.536 L50.769,18.998 L83.077,18.998 L83.077,45.536 C83.077,46.175 83.593,46.69 84.23,46.69 C84.867,46.69 85.384,46.174 85.384,45.536 L85.384,17.844 L85.384,17.844 L85.384,17.844 C85.385,17.207 84.868,16.69 84.23,16.69 Z" id="Shape"></path>
                        </g>
                    </g>
                    <g id="noun_519879_cc" transform="translate(33.000000, 98.000000)" fill-rule="nonzero" fill="#000000">
                        <path d="M47.3918611,10.3223743 L50.3028384,13.6116017 L51.957406,12.1472651 L41.9393086,0.826306164 L29.0743814,0.826306164 L19.0208921,12.1870809 L20.6754598,13.6514175 L23.5864371,10.3621901 L23.5864371,25.2289671 L0,25.2289671 L0,67.4757421 L70.7836431,67.4757421 L70.7836431,25.2267551 L47.3918611,25.2267551 L47.3918611,10.3223743 Z M34.2858271,27.438744 L34.2858271,65.2615413 L16.4195932,65.2615413 L25.3516042,27.438744 L34.2858271,27.438744 Z M37.5352388,25.2267551 L33.4452714,25.2267551 L33.4452714,17.6750252 L37.5352388,17.6750252 L37.5352388,25.2267551 L37.5352388,25.2267551 Z M36.497816,27.438744 L45.4099191,27.438744 L54.339718,65.2615413 L36.497816,65.2615413 L36.497816,27.438744 Z M30.0719884,3.03829501 L40.9417016,3.03829501 L46.4384939,9.24734771 L24.5751961,9.24734771 L30.0719884,3.03829501 Z M25.8006379,11.4593366 L45.1798722,11.4593366 L45.1798722,25.2289671 L39.7472276,25.2289671 L39.7472276,15.4630364 L31.2332825,15.4630364 L31.2332825,25.2267551 L25.8006379,25.2267551 L25.8006379,11.4593366 Z M12.0796711,27.438744 L2.21198885,48.6495051 L2.21198885,27.438744 L12.0796711,27.438744 Z M2.21198885,53.8919186 L14.5172828,27.438744 L23.0798916,27.438744 L14.1478807,65.2615413 L2.21198885,65.2615413 L2.21198885,53.8919186 Z M56.6114306,65.2615413 L47.6816316,27.438744 L56.2442404,27.438744 L68.5716543,53.9383704 L68.5716543,65.2615413 L56.6114306,65.2615413 Z M68.5716543,48.6959568 L58.6840641,27.438744 L68.5716543,27.438744 L68.5716543,48.6959568 Z" id="Shape"></path>
                    </g>
                    <g id="noun_959392_cc" transform="translate(492.126953, 0.269606)" fill-rule="nonzero" fill="#000000">
                        <path d="M2.35848858,22.2984375 L2.35848858,55.2458083 C2.35848858,55.6746244 2.64436599,55.9605018 3.07318209,55.9605018 L52.8873197,55.9605018 C53.3161358,55.9605018 53.6020132,55.6746244 53.6020132,55.2458083 L53.6020132,22.2984375 C54.7455228,21.583744 55.5316857,20.2972957 55.5316857,18.7964393 C55.5316857,18.7964393 55.5316857,18.7964393 55.5316857,18.7964393 C55.5316857,18.7964393 55.5316857,18.7964393 55.5316857,18.7964393 L54.1022987,1.00057091 C54.1022987,0.643224159 53.7449519,0.357346755 53.3876052,0.357346755 L2.57289663,0.357346755 C2.21554988,0.357346755 1.85820313,0.643224159 1.85820313,1.00057091 L0.428816106,18.7964393 C0.428816106,18.7964393 0.428816106,18.7964393 0.428816106,18.7964393 C0.428816106,18.7964393 0.428816106,18.7964393 0.428816106,18.7964393 C0.500285457,20.2972957 1.21497897,21.583744 2.35848858,22.2984375 Z M51.4579327,21.5122746 C50.2429537,21.5122746 49.1709135,20.6546424 48.8850361,19.5111328 L53.95936,19.5111328 C53.6734826,20.6546424 52.6014423,21.5122746 51.4579327,21.5122746 Z M52.1726262,50.100015 L38.7363882,50.100015 L38.7363882,37.2355319 L52.1726262,37.2355319 L52.1726262,50.100015 Z M3.7878756,37.2355319 L17.2241136,37.2355319 L17.2241136,50.100015 L3.7878756,50.100015 L3.7878756,37.2355319 Z M24.6569261,21.5122746 C23.4419471,21.5122746 22.3699069,20.6546424 22.0840294,19.5111328 L27.1583534,19.5111328 C26.9439453,20.6546424 25.871905,21.5122746 24.6569261,21.5122746 Z M17.9388071,21.5122746 C16.7238281,21.5122746 15.6517879,20.6546424 15.3659105,19.5111328 L20.4402344,19.5111328 C20.2258263,20.6546424 19.1537861,21.5122746 17.9388071,21.5122746 Z M18.6535006,22.8701923 C19.7255409,22.6557843 20.6546424,22.0125601 21.2978666,21.1549279 C22.0125601,22.2269681 23.2275391,22.9416617 24.6569261,22.9416617 C25.5860276,22.9416617 26.4436599,22.5843149 27.1583534,22.0840294 L27.1583534,50.100015 L18.6535006,50.100015 L18.6535006,22.8701923 Z M28.5877404,21.8696214 C29.3024339,22.5128456 30.3030048,22.9416617 31.3750451,22.9416617 C32.7329627,22.9416617 34.0194111,22.2269681 34.7341046,21.1549279 C35.3058594,22.0125601 36.3064303,22.6557843 37.3784706,22.8701923 L37.3784706,50.0285457 L28.5877404,50.0285457 L28.5877404,21.8696214 Z M28.8021484,19.5111328 L33.8764724,19.5111328 C33.590595,20.6546424 32.590024,21.5122746 31.3035757,21.5122746 C30.0171274,21.5122746 29.0880258,20.6546424 28.8021484,19.5111328 Z M38.0216947,21.5122746 C36.8067157,21.5122746 35.7346755,20.6546424 35.4487981,19.5111328 L40.523122,19.5111328 C40.3087139,20.6546424 39.308143,21.5122746 38.0216947,21.5122746 Z M47.3127103,19.5111328 C47.0268329,20.6546424 46.026262,21.5122746 44.7398137,21.5122746 C43.4533654,21.5122746 42.4527945,20.6546424 42.1669171,19.5111328 L47.3127103,19.5111328 Z M41.8810397,18.0817458 L41.8810397,1.78673377 L47.1697716,1.78673377 L47.1697716,18.1532151 L41.8810397,18.1532151 L41.8810397,18.0817458 Z M40.4516526,18.0817458 L35.4487981,18.0817458 L35.4487981,1.78673377 L40.4516526,1.78673377 L40.4516526,18.0817458 Z M34.0194111,18.0817458 L28.7306791,18.0817458 L28.7306791,1.78673377 L34.0194111,1.78673377 L34.0194111,18.0817458 Z M27.3012921,18.0817458 L22.0125601,18.0817458 L22.0125601,1.78673377 L27.3012921,1.78673377 L27.3012921,18.0817458 Z M20.5831731,18.0817458 L15.2944411,18.0817458 L15.2944411,1.78673377 L20.5831731,1.78673377 L20.5831731,18.0817458 Z M13.8650541,18.0817458 L8.50485276,18.0817458 L8.50485276,1.78673377 L13.8650541,1.78673377 L13.8650541,18.0817458 Z M13.7935847,19.5111328 C13.5077073,20.6546424 12.5071364,21.5122746 11.2206881,21.5122746 C9.93423978,21.5122746 8.93366887,20.6546424 8.64779147,19.5111328 L13.7935847,19.5111328 Z M7.07546575,19.5111328 C6.78958834,20.6546424 5.78901743,21.5122746 4.50256911,21.5122746 C3.28759014,21.5122746 2.28701923,20.6546424 2.00114183,19.5111328 L7.07546575,19.5111328 Z M4.57403846,22.9416617 C5.93195613,22.9416617 7.21840445,22.2269681 7.93309796,21.1549279 C8.64779147,22.2269681 9.86277043,22.9416617 11.2921575,22.9416617 C12.7215445,22.9416617 13.9365234,22.2269681 14.6512169,21.1549279 C15.2229718,22.0125601 16.2235427,22.6557843 17.2955829,22.8701923 L17.2955829,35.8061448 L3.7878756,35.8061448 L3.7878756,22.8701923 C4.073753,22.9416617 4.28816106,22.9416617 4.57403846,22.9416617 Z M3.7878756,54.5311148 L3.7878756,51.4579327 L52.1726262,51.4579327 L52.1726262,54.5311148 L3.7878756,54.5311148 Z M52.1726262,35.8061448 L38.7363882,35.8061448 L38.7363882,22.8701923 C39.8084285,22.6557843 40.73753,22.0125601 41.3807542,21.1549279 C42.0954477,22.2269681 43.3104267,22.9416617 44.7398137,22.9416617 C46.1692007,22.9416617 47.3841797,22.2269681 48.0988732,21.1549279 C48.8135667,22.2269681 50.0285457,22.9416617 51.4579327,22.9416617 C51.6723407,22.9416617 51.9582181,22.9416617 52.1726262,22.8701923 L52.1726262,35.8061448 L52.1726262,35.8061448 Z M54.0308293,18.0817458 L48.5991587,18.0817458 L48.5991587,1.78673377 L52.6729117,1.78673377 L54.0308293,18.0817458 Z M3.28759014,1.78673377 L7.07546575,1.78673377 L7.07546575,18.1532151 L2.00114183,18.1532151 L3.28759014,1.78673377 Z" id="Shape"></path>
                        <path d="M30.7318209,35.4487981 C30.3030048,35.4487981 30.0171274,35.7346755 30.0171274,36.1634916 L30.0171274,38.1646334 C30.0171274,38.5934495 30.3030048,38.8793269 30.7318209,38.8793269 C31.160637,38.8793269 31.4465144,38.5934495 31.4465144,38.1646334 L31.4465144,36.1634916 C31.4465144,35.8061448 31.160637,35.4487981 30.7318209,35.4487981 Z" id="Shape"></path>
                        <path d="M25.0857422,35.4487981 C24.6569261,35.4487981 24.3710487,35.7346755 24.3710487,36.1634916 L24.3710487,38.1646334 C24.3710487,38.5934495 24.6569261,38.8793269 25.0857422,38.8793269 C25.5145583,38.8793269 25.8004357,38.5934495 25.8004357,38.1646334 L25.8004357,36.1634916 C25.8004357,35.8061448 25.5145583,35.4487981 25.0857422,35.4487981 Z" id="Shape"></path>
                    </g>
                    <g id="noun_895709_cc" transform="translate(660.000000, 88.000000)" fill-rule="nonzero" fill="#000000">
                        <g id="Group">
                            <path d="M55.503,46.344 L70.548,46.344 C71.105,46.344 71.553,45.894 71.553,45.339 C71.553,44.783 71.105,44.333 70.548,44.333 L69.308,44.333 L69.308,31.385 C69.308,30.83 68.858,30.38 68.303,30.38 L57.623,30.38 C57.066,30.38 56.618,30.83 56.618,31.385 L56.618,44.333 L55.503,44.333 C54.948,44.333 54.497,44.783 54.497,45.339 C54.497,45.894 54.948,46.344 55.503,46.344 Z M58.628,32.39 L67.297,32.39 L67.297,36.143 L58.628,36.143 L58.628,32.39 Z M58.628,38.153 L67.297,38.153 L67.297,44.334 L58.628,44.334 L58.628,38.153 Z" id="Shape"></path>
                            <path d="M28.497,44.334 L27.381,44.334 L27.381,31.386 C27.381,30.831 26.933,30.381 26.376,30.381 L15.697,30.381 C15.142,30.381 14.692,30.831 14.692,31.386 L14.692,44.334 L13.452,44.334 C12.897,44.334 12.447,44.784 12.447,45.34 C12.447,45.895 12.897,46.345 13.452,46.345 L28.497,46.345 C29.052,46.345 29.502,45.895 29.502,45.34 C29.502,44.784 29.052,44.334 28.497,44.334 Z M25.371,44.334 L16.702,44.334 L16.702,38.153 L25.371,38.153 L25.371,44.334 Z M25.371,36.143 L16.702,36.143 L16.702,32.39 L25.371,32.39 L25.371,36.143 Z" id="Shape"></path>
                            <path d="M14.906,55.447 C12.266,55.447 11.259,57.861 11.095,59.137 C11.024,59.688 11.413,60.192 11.964,60.262 C12.007,60.268 12.051,60.271 12.093,60.271 C12.591,60.271 13.024,59.9 13.089,59.393 C13.099,59.314 13.355,57.456 14.906,57.456 C16.31,57.456 16.481,59.011 16.5,59.316 C16.529,59.871 16.998,60.299 17.556,60.268 C18.11,60.24 18.536,59.767 18.508,59.213 C18.441,57.911 17.602,55.447 14.906,55.447 Z" id="Shape"></path>
                            <path d="M69.094,55.447 C66.398,55.447 65.559,57.911 65.492,59.215 C65.464,59.767 65.887,60.235 66.437,60.266 C66.99,60.299 67.463,59.875 67.499,59.324 C67.519,59.012 67.689,57.458 69.094,57.458 C70.595,57.458 70.884,59.202 70.911,59.395 C70.975,59.902 71.408,60.273 71.906,60.273 C71.949,60.273 71.992,60.27 72.036,60.264 C72.586,60.194 72.975,59.69 72.904,59.139 C72.74,57.861 71.734,55.447 69.094,55.447 Z" id="Shape"></path>
                            <path d="M82.119,59.46 C80.911,58.061 79.112,57.289 76.77,57.162 C76.479,56.463 75.912,55.367 74.937,54.36 L74.937,29.385 L79.847,29.385 C80.402,29.385 80.852,28.935 80.852,28.38 L80.852,21.236 C80.852,20.839 80.618,20.476 80.253,20.318 L72.625,16.959 L72.625,8.676 L73.604,8.676 C74.162,8.676 74.61,8.227 74.61,7.671 L74.61,1.177 C74.61,0.622 74.162,0.172 73.604,0.172 L60.978,0.172 C60.423,0.172 59.973,0.622 59.973,1.177 L59.973,7.671 C59.973,8.227 60.423,8.676 60.978,8.676 L61.957,8.676 L61.957,12.265 L50,7.001 L48.141,6.184 L42.874,3.866 C42.745,3.81 42.609,3.782 42.468,3.782 L41.53,3.782 C41.391,3.782 41.255,3.81 41.126,3.866 L35.856,6.186 L33.995,7.005 L3.749,20.319 C3.383,20.477 3.148,20.84 3.148,21.238 L3.148,28.381 C3.148,28.937 3.598,29.387 4.153,29.387 L9.066,29.387 L9.066,54.361 C8.089,55.368 7.523,56.464 7.231,57.163 C4.889,57.29 3.09,58.061 1.882,59.461 C-0.098,61.75 0.326,64.838 0.344,64.968 C0.416,65.463 0.84,65.828 1.339,65.828 L31.861,65.828 C31.861,65.828 31.861,65.828 31.863,65.828 L82.663,65.828 C83.161,65.828 83.585,65.463 83.657,64.968 C83.675,64.836 84.099,61.749 82.119,59.46 Z M61.984,2.182 L72.6,2.182 L72.6,6.666 L61.984,6.666 L61.984,2.182 L61.984,2.182 Z M70.616,8.677 L70.616,16.076 L63.967,13.149 L63.967,8.676 L70.616,8.676 L70.616,8.677 Z M9.064,23.837 L9.064,27.376 L5.157,27.376 L5.157,21.893 L35.079,8.724 L36.94,7.906 L41.742,5.792 L42.257,5.792 L47.055,7.904 L48.916,8.722 L62.567,14.73 C62.57,14.732 62.572,14.732 62.574,14.734 L71.224,18.541 C71.226,18.543 71.23,18.543 71.232,18.545 L78.842,21.894 L78.842,27.377 L74.937,27.377 L74.937,23.838 C74.937,23.436 74.698,23.073 74.33,22.915 L47.311,11.265 L45.444,10.459 L42.866,9.348 C42.741,9.293 42.604,9.265 42.468,9.265 L41.531,9.265 C41.394,9.265 41.258,9.293 41.133,9.348 L38.552,10.461 L36.682,11.267 L9.67,22.915 C9.302,23.072 9.064,23.434 9.064,23.837 Z M2.309,63.817 L2.309,63.817 C2.347,62.993 2.558,61.739 3.411,60.761 C4.344,59.694 5.867,59.152 7.941,59.152 C8.391,59.152 8.787,58.848 8.91,58.414 C8.914,58.398 9.376,56.788 10.751,55.52 C11.873,54.482 13.293,53.956 14.976,53.956 C19.766,53.956 21.309,58.959 21.372,59.17 C21.46,59.47 21.684,59.713 21.975,59.825 C22.267,59.938 22.596,59.908 22.861,59.745 C22.885,59.731 25.131,58.379 27.257,59.268 C28.708,59.875 29.814,61.403 30.553,63.817 L2.309,63.817 Z M51.133,63.817 L32.866,63.817 L32.866,32.39 L51.133,32.39 L51.133,63.817 Z M52.138,30.381 L31.862,30.381 C31.307,30.381 30.857,30.831 30.857,31.386 L30.857,59.772 C30.077,58.664 29.134,57.876 28.033,57.416 C26.045,56.582 24.069,57.057 22.893,57.515 C21.836,55.149 19.303,51.948 14.976,51.948 C13.531,51.948 12.226,52.254 11.075,52.854 L11.075,24.5 L37.769,12.988 L39.638,12.182 L39.638,12.182 L41.738,11.276 L42.261,11.276 L44.359,12.18 L44.359,12.18 L46.226,12.986 L72.926,24.5 L72.926,28.373 C72.926,28.377 72.924,28.381 72.924,28.383 C72.924,28.388 72.926,28.389 72.926,28.394 L72.926,52.855 C71.773,52.254 70.468,51.949 69.023,51.949 C64.696,51.949 62.164,55.151 61.106,57.516 C59.93,57.058 57.955,56.583 55.966,57.417 C54.864,57.878 53.922,58.665 53.142,59.773 L53.142,31.387 C53.143,30.831 52.693,30.381 52.138,30.381 Z M53.447,63.817 C54.185,61.411 55.286,59.885 56.731,59.274 C58.837,58.381 61.119,59.732 61.139,59.745 C61.405,59.908 61.734,59.937 62.026,59.825 C62.317,59.713 62.541,59.47 62.629,59.17 C62.646,59.117 64.205,53.956 69.025,53.956 C70.708,53.956 72.129,54.482 73.253,55.519 C74.625,56.788 75.088,58.398 75.092,58.41 C75.21,58.848 75.609,59.151 76.061,59.151 C78.135,59.151 79.661,59.694 80.591,60.761 C81.444,61.74 81.654,62.994 81.693,63.817 L53.447,63.817 Z" id="Shape"></path>
                            <circle id="Oval" cx="37.354" cy="48.298" r="1.38"></circle>
                        </g>
                    </g>
                    <g id="Group-2" transform="translate(323.000000, 203.000000)" fill="#2B2928">
                        <g id="Page-1">
                            <polygon id="Fill-1" points="44.5779316 7.88858701e-05 43.4387475 0.00855911685 43.6330684 24.4365547 44.7718563 24.4278773"></polygon>
                            <polygon id="Fill-2" points="28.4900216 31.3191299 16.6089119 19.6363298 17.4077868 18.8257775 29.2890946 30.5083804"></polygon>
                            <polygon id="Fill-3" points="25.8924204 34.6987386 17.7864055 29.3810421 18.4115603 28.4304674 26.5179713 33.7481639"></polygon>
                            <polygon id="Fill-4" points="24.0163024 38.5209562 15.0236612 34.8831343 15.4513257 33.8284302 24.444165 37.4664493"></polygon>
                            <polygon id="Fill-5" points="22.9261245 42.6353276 13.3903355 40.8217415 13.602484 39.7045203 23.1386691 41.5179093"></polygon>
                            <polygon id="Fill-6" points="13.7085781 53.0626196 13.478602 51.9489483 22.9844802 49.9846902 23.2144563 51.0983615"></polygon>
                            <polygon id="Fill-7" points="15.6502818 58.9091867 15.2057802 57.8615823 24.1395902 54.0813714 24.5840919 55.1287786"></polygon>
                            <polygon id="Fill-8" points="18.6952965 64.2597588 18.0560778 63.318256 26.088009 57.8727644 26.7272278 58.8142672"></polygon>
                            <polygon id="Fill-9" points="17.8444245 73.8668942 17.0328722 73.0687664 28.7269901 61.2001901 29.5387405 61.9983179"></polygon>
                            <polygon id="Fill-10" points="27.5986016 72.6913172 26.6470036 72.0663439 31.970129 63.9685122 32.9215289 64.5934855"></polygon>
                            <polygon id="Fill-11" points="33.1062229 75.4505674 32.0506305 75.0232032 35.6922164 66.0394832 36.7478088 66.4668474"></polygon>
                            <polygon id="Fill-12" points="39.0398052 77.0831105 37.9212219 76.8707103 39.7362704 67.3436638 40.8544575 67.556064"></polygon>
                            <polygon id="Fill-13" points="50.189052 76.9948372 48.2228651 67.4977674 49.3376848 67.2680123 51.3038717 76.7650821"></polygon>
                            <polygon id="Fill-14" points="56.1070847 75.2684791 52.3236703 66.3435291 53.3723298 65.8995988 57.1557442 74.8245489"></polygon>
                            <polygon id="Fill-15" points="61.570236 72.4223164 56.1082534 64.3980457 57.049551 63.7582813 62.5115337 71.782552"></polygon>
                            <polygon id="Fill-16" points="71.3301378 73.4434151 59.4490281 61.7614039 60.247903 60.9506544 72.1292108 72.6326656"></polygon>
                            <polygon id="Fill-17" points="70.3269586 63.8504003 62.2092567 58.5216598 62.8344115 57.5710851 70.9525095 62.8998256"></polygon>
                            <polygon id="Fill-18" points="73.2866979 58.4528319 64.2940567 54.8146156 64.7219193 53.7601087 73.7145605 57.398325"></polygon>
                            <polygon id="Fill-19" points="75.1353811 52.5762882 65.5995922 50.7627021 65.8117407 49.645481 75.3479258 51.4588699"></polygon>
                            <polygon id="Fill-20" points="65.7536029 42.2962564 65.5236268 41.1825851 75.0295049 39.218327 75.2594811 40.3319983"></polygon>
                            <polygon id="Fill-21" points="64.5982551 38.1996738 64.1537534 37.1520694 73.0875635 33.372253 73.5320652 34.4198573"></polygon>
                            <polygon id="Fill-22" points="62.6623156 34.4076103 62.0219084 33.4672907 70.0425488 28.0217991 70.6829561 28.9621187"></polygon>
                            <polygon id="Fill-23" points="60.0108552 31.0695744 59.1993029 30.2714467 70.8934209 18.4024759 71.7051712 19.2004065"></polygon>
                            <polygon id="Fill-24" points="56.779542 28.3122569 55.827944 27.6872836 61.1510694 19.5902407 62.1024693 20.2148196"></polygon>
                            <polygon id="Fill-25" points="53.0574942 26.2294333 52.0019018 25.8020691 55.6434877 16.8301819 56.6990801 17.2575461"></polygon>
                            <polygon id="Fill-26" points="49.0018324 24.9264754 47.8832491 24.7130891 49.6986938 15.1976783 50.8172771 15.4112618"></polygon>
                            <polygon id="Fill-27" points="39.4002002 25.0025017 37.4348056 15.5170675 38.5496253 15.2859319 40.5150199 24.7715633"></polygon>
                            <polygon id="Fill-28" points="35.3773808 26.3693768 31.5939665 17.4562596 32.6426259 17.0121322 36.4260403 25.9254466"></polygon>
                            <polygon id="Fill-29" points="31.6888489 28.5109113 26.237959 20.4986707 27.1796529 19.8591035 32.6301466 27.8711469"></polygon>
                            <polygon id="Fill-30" points="0 46.071103 0.00871571903 47.2086373 22.6505691 47.0291719 22.6414572 45.8916377"></polygon>
                            <polygon id="Fill-31" points="17.8444245 73.8668942 17.0328722 73.0687664 28.7269901 61.2001901 29.5387405 61.9983179"></polygon>
                            <polygon id="Fill-32" points="43.9771412 67.8418873 44.1577943 90.6199849 45.2969784 90.610913 45.1161272 67.8332098"></polygon>
                            <polygon id="Fill-33" points="71.3301378 73.4434151 59.4490281 61.7614039 60.247903 60.9506544 72.1292108 72.6326656"></polygon>
                            <polygon id="Fill-34" points="66.0903268 45.5474981 66.0990425 46.6854267 88.7519886 46.5061586 88.7430748 45.3682299"></polygon>
                            <polygon id="Fill-35" points="60.0108552 31.0695744 59.1993029 30.2714467 70.8934209 18.4024759 71.7051712 19.2004065"></polygon>
                        </g>
                    </g>
                    <polyline id="Path-7" stroke="#000000" stroke-width="2" points="78 78.5027472 123.502747 33 172.064535 33"></polyline>
                    <polyline id="Path-7-Copy" stroke="#000000" stroke-width="2" transform="translate(613.032268, 55.751374) scale(-1, 1) translate(-613.032268, -55.751374) " points="566 78.5027472 611.502747 33 660.064535 33"></polyline>
                    <polyline id="Path-7-Copy-2" stroke="#000000" stroke-width="2" transform="translate(547.451139, 235.500000) scale(-1, 1) translate(-547.451139, -235.500000) " points="434.902278 214 478.425844 257 660 257"></polyline>
                    <polyline id="Path-7-Copy-3" stroke="#000000" stroke-width="2" points="78 214 121.523566 257 303.097722 257"></polyline>
                    <path d="M257,34 L303.097722,34" id="Path-8" stroke="#000000" stroke-width="2"></path>
                    <path d="M430,34 L476.097722,34" id="Path-8-Copy" stroke="#000000" stroke-width="2"></path>
                    <text id="Farm’s-and-Producers" font-family="BrandonText-Bold, Brandon Text" font-size="14" font-weight="bold" fill="#000000">
                        <tspan x="0.165" y="190">Farm’s and Producers</tspan>
                    </text>
                    <text id="Soulara" font-family="BrandonText-Bold, Brandon Text" font-size="14" font-weight="bold" fill="#000000">
                        <tspan x="345.404" y="326">Soulara</tspan>
                    </text>
                    <text id="Wholesalers" font-family="BrandonText-Bold, Brandon Text" font-size="14" font-weight="bold" fill="#000000">
                        <tspan x="174.044" y="91">Wholesalers</tspan>
                    </text>
                    <text id="Warehouses" font-family="BrandonText-Bold, Brandon Text" font-size="14" font-weight="bold" fill="#000000">
                        <tspan x="325.383" y="91">Warehouses</tspan>
                    </text>
                    <text id="Supermarkets" font-family="BrandonText-Bold, Brandon Text" font-size="14" font-weight="bold" fill="#000000">
                        <tspan x="478.01" y="91">Supermarkets</tspan>
                    </text>
                    <text id="You" font-family="BrandonText-Bold, Brandon Text" font-size="14" font-weight="bold" fill="#000000">
                        <tspan x="692.81" y="189">You</tspan>
                    </text>
                </g>
            </g>
        </g>
    </g>
</svg>