<?xml version="1.0" encoding="UTF-8"?>
<svg width="743px" height="327px" viewBox="0 0 743 327" version="1.1" xmlns="http://www.w3.org/2000/svg" xmlns:xlink="http://www.w3.org/1999/xlink">
    <!-- Generator: Sketch 45.2 (43514) - http://www.bohemiancoding.com/sketch -->
    <title>supply-chain</title>
    <desc>Created with Sketch.</desc>
    <defs></defs>
    <g id="Page-1" stroke="none" stroke-width="1" fill="none" fill-rule="evenodd">
        <g id="Our-Food-Ethos" transform="translate(-347.000000, -5245.000000)">
            <g id="Plant-Power-Directly" transform="translate(346.000000, 4908.000000)">
                <g id="supply-chain" transform="translate(0.000000, 337.000000)">
                    <g id="noun_1125471_cc" transform="translate(187.000000, 2.000000)" fill-rule="nonzero" fill="#000000">
                        <path d="M59,43.1 L38.7,43.1 L38.7,1.4 C38.7,0.8 38.3,0.4 37.7,0.4 C37.1,0.4 36.7,0.8 36.7,1.4 L36.7,43 L34.9,43 L34.9,22.5 C34.9,22.4 34.9,22.2 34.8,22.1 L26,3.3 C25.8,2.9 25.5,2.7 25.1,2.7 L1,2.7 C0.4,2.7 0,3.1 0,3.7 L0,44 C0,44.6 0.4,45 1,45 L2,45 C2.5,48.7 5.6,51.5 9.4,51.5 C13.2,51.5 16.3,48.7 16.8,45 L18.8,45 C19.3,48.7 22.4,51.5 26.2,51.5 C30,51.5 33.1,48.7 33.6,45 L34,45 L59,45 C59.6,45 60,44.6 60,44 C60,43.4 59.6,43.1 59,43.1 Z M9.4,49.6 C6.4,49.6 3.9,47.2 3.9,44.1 C3.9,41 6.3,38.6 9.4,38.6 C12.5,38.6 14.9,41 14.9,44.1 C14.9,47.2 12.4,49.6 9.4,49.6 Z M26.2,49.6 C23.2,49.6 20.7,47.2 20.7,44.1 C20.7,41 23.1,38.6 26.2,38.6 C29.3,38.6 31.7,41 31.7,44.1 C31.7,47.2 29.2,49.6 26.2,49.6 Z M32.9,41 C31.7,38.5 29.1,36.7 26.1,36.7 C22.4,36.7 19.3,39.5 18.7,43.1 L16.7,43.1 C16.2,39.5 13.1,36.7 9.3,36.7 C5.5,36.7 2.5,39.5 1.9,43.1 L2,43.1 L2,4.8 L24.5,4.8 L25.6,7.2 L8.1,7.2 C7.5,7.2 7.1,7.6 7.1,8.2 L7.1,29 C7.1,29.6 7.5,30 8.1,30 L32.9,30 L32.9,41 L32.9,41 Z M32.9,25.7 L27.3,17.5 L28.1,16.7 C28.5,16.3 28.5,15.7 28.1,15.3 C27.7,14.9 27.1,14.9 26.7,15.3 L23.6,18.4 C23.2,18.8 23.2,19.4 23.6,19.8 C23.8,20 24.1,20.1 24.3,20.1 C24.5,20.1 24.8,20 25,19.8 L25.8,19 L31.9,28 L9.1,28 L9.1,9.2 L26.6,9.2 L33,22.8 L33,25.7 L32.9,25.7 Z M17.6,24 L25.3,24 C25.9,24 26.3,24.4 26.3,25 C26.3,25.6 25.9,26 25.3,26 L16.9,26 C16.5,26 16.1,25.8 16,25.4 L11.4,14.1 C11.2,13.6 11.4,13 11.9,12.8 C12.4,12.6 13,12.8 13.2,13.3 L17.6,24 Z" id="Shape"></path>
                    </g>
                    <g id="noun_1063878_cc" transform="translate(316.000000, 2.000000)" fill-rule="nonzero" fill="#000000">
                        <g id="Group">
                            <path d="M43.846,3.135 L43.846,12.848 L0,0.156 L0,46.69 C0,47.328 0.516,47.844 1.154,47.844 C1.792,47.844 2.308,47.327 2.308,46.69 L2.308,3.226 L43.846,15.25 L43.846,46.69 C43.846,47.328 44.362,47.844 45,47.844 C45.638,47.844 46.154,47.327 46.154,46.69 L46.154,13.516 L46.154,6.016 L87.692,15.308 L87.692,46.69 C87.692,47.328 88.208,47.844 88.845,47.844 C89.484,47.844 89.999,47.327 89.999,46.69 L89.999,13.459 L43.846,3.135 Z" id="Shape"></path>
                            <path d="M40.385,16.69 L5.769,16.69 C5.131,16.69 4.615,17.206 4.615,17.844 L4.615,17.844 L4.615,17.844 L4.615,45.536 L4.615,45.536 L4.615,45.536 C4.615,46.175 5.131,46.69 5.769,46.69 L40.385,46.69 C41.023,46.69 41.539,46.174 41.539,45.536 L41.539,45.536 L41.539,45.536 L41.539,17.844 L41.539,17.844 L41.539,17.844 C41.539,17.207 41.022,16.69 40.385,16.69 Z M6.923,35.152 L6.923,32.844 L39.231,32.844 L39.231,35.152 L6.923,35.152 Z M39.231,37.46 L39.231,39.768 L6.923,39.768 L6.923,37.46 L39.231,37.46 Z M6.923,30.536 L6.923,28.228 L39.231,28.228 L39.231,30.536 L6.923,30.536 Z M6.923,25.921 L6.923,23.615 L39.231,23.615 L39.231,25.921 L6.923,25.921 Z M6.923,21.307 L6.923,18.998 L39.231,18.998 L39.231,21.307 L6.923,21.307 Z M6.923,42.075 L39.231,42.075 L39.231,44.383 L6.923,44.383 L6.923,42.075 Z" id="Shape"></path>
                            <path d="M76.154,28.229 L68.077,28.229 L65.77,28.229 L57.693,28.229 L57.693,36.306 L54.23,36.306 L54.23,46.69 L62.307,46.69 L64.615,46.69 L70.385,46.69 L72.693,46.69 L80.77,46.69 L80.77,36.306 L76.155,36.306 L76.155,28.229 L76.154,28.229 Z M68.077,30.536 L73.846,30.536 L73.846,36.306 L72.693,36.306 L70.385,36.306 L68.077,36.306 L68.077,30.536 Z M60,30.536 L65.77,30.536 L65.77,36.306 L64.616,36.306 L62.308,36.306 L60,36.306 L60,30.536 Z M62.308,44.383 L56.538,44.383 L56.538,38.613 L57.692,38.613 L62.307,38.613 L62.307,44.383 L62.308,44.383 Z M70.385,44.383 L64.615,44.383 L64.615,38.613 L65.769,38.613 L68.077,38.613 L70.385,38.613 L70.385,44.383 L70.385,44.383 Z M78.462,38.613 L78.462,44.383 L72.692,44.383 L72.692,38.613 L76.154,38.613 L78.462,38.613 Z" id="Shape"></path>
                            <path d="M84.23,16.69 L49.615,16.69 C48.977,16.69 48.462,17.206 48.462,17.844 L48.462,17.844 L48.462,17.844 L48.462,45.536 C48.462,46.175 48.978,46.69 49.615,46.69 C50.252,46.69 50.769,46.174 50.769,45.536 L50.769,18.998 L83.077,18.998 L83.077,45.536 C83.077,46.175 83.593,46.69 84.23,46.69 C84.867,46.69 85.384,46.174 85.384,45.536 L85.384,17.844 L85.384,17.844 L85.384,17.844 C85.385,17.207 84.868,16.69 84.23,16.69 Z" id="Shape"></path>
                        </g>
                    </g>
                    <g id="noun_519879_cc" transform="translate(33.000000, 98.000000)" fill-rule="nonzero" fill="#000000">
                        <path d="M47.3918611,10.3223743 L50.3028384,13.6116017 L51.957406,12.1472651 L41.9393086,0.826306164 L29.0743814,0.826306164 L19.0208921,12.1870809 L20.6754598,13.6514175 L23.5864371,10.3621901 L23.5864371,25.2289671 L0,25.2289671 L0,67.4757421 L70.7836431,67.4757421 L70.7836431,25.2267551 L47.3918611,25.2267551 L47.3918611,10.3223743 Z M34.2858271,27.438744 L34.2858271,65.2615413 L16.4195932,65.2615413 L25.3516042,27.438744 L34.2858271,27.438744 Z M37.5352388,25.2267551 L33.4452714,25.2267551 L33.4452714,17.6750252 L37.5352388,17.6750252 L37.5352388,25.2267551 L37.5352388,25.2267551 Z M36.497816,27.438744 L45.4099191,27.438744 L54.339718,65.2615413 L36.497816,65.2615413 L36.497816,27.438744 Z M30.0719884,3.03829501 L40.9417016,3.03829501 L46.4384939,9.24734771 L24.5751961,9.24734771 L30.0719884,3.03829501 Z M25.8006379,11.4593366 L45.1798722,11.4593366 L45.1798722,25.2289671 L39.7472276,25.2289671 L39.7472276,15.4630364 L31.2332825,15.4630364 L31.2332825,25.2267551 L25.8006379,25.2267551 L25.8006379,11.4593366 Z M12.0796711,27.438744 L2.21198885,48.6495051 L2.21198885,27.438744 L12.0796711,27.438744 Z M2.21198885,53.8919186 L14.5172828,27.438744 L23.0798916,27.438744 L14.1478807,65.2615413 L2.21198885,65.2615413 L2.21198885,53.8919186 Z M56.6114306,65.2615413 L47.6816316,27.438744 L56.2442404,27.438744 L68.5716543,53.9383704 L68.5716543,65.2615413 L56.6114306,65.2615413 Z M68.5716543,48.6959568 L58.6840641,27.438744 L68.5716543,27.438744 L68.5716543,48.6959568 Z" id="Shape"></path>
                    </g>
                    <g id="noun_959392_cc" transform="translate(492.126953, 0.269606)" fill-rule="nonzero" fill="#000000">
                        <path d="M2.35848858,22.2984375 L2.35848858,55.2458083 C2.35848858,55.6746244 2.64436599,55.9605018 3.07318209,55.9605018 L52.8873197,55.9605018 C53.3161358,55.9605018 53.6020132,55.6746244 53.6020132,55.2458083 L53.6020132,22.2984375 C54.7455228,21.583744 55.5316857,20.2972957 55.5316857,18.7964393 C55.5316857,18.7964393 55.5316857,18.7964393 55.5316857,18.7964393 C55.5316857,18.7964393 55.5316857,18.7964393 55.5316857,18.7964393 L54.1022987,1.00057091 C54.1022987,0.643224159 53.7449519,0.357346755 53.3876052,0.357346755 L2.57289663,0.357346755 C2.21554988,0.357346755 1.85820313,0.643224159 1.85820313,1.00057091 L0.428816106,18.7964393 C0.428816106,18.7964393 0.428816106,18.7964393 0.428816106,18.7964393 C0.428816106,18.7964393 0.428816106,18.7964393 0.428816106,18.7964393 C0.500285457,20.2972957 1.21497897,21.583744 2.35848858,22.2984375 Z M51.4579327,21.5122746 C50.2429537,21.5122746 49.1709135,20.6546424 48.8850361,19.5111328 L53.95936,19.5111328 C53.6734826,20.6546424 52.6014423,21.5122746 51.4579327,21.5122746 Z M52.1726262,50.100015 L38.7363882,50.100015 L38.7363882,37.2355319 L52.1726262,37.2355319 L52.1726262,50.100015 Z M3.7878756,37.2355319 L17.2241136,37.2355319 L17.2241136,50.100015 L3.7878756,50.100015 L3.7878756,37.2355319 Z M24.6569261,21.5122746 C23.4419471,21.5122746 22.3699069,20.6546424 22.0840294,19.5111328 L27.1583534,19.5111328 C26.9439453,20.6546424 25.871905,21.5122746 24.6569261,21.5122746 Z M17.9388071,21.5122746 C16.7238281,21.5122746 15.6517879,20.6546424 15.3659105,19.5111328 L20.4402344,19.5111328 C20.2258263,20.6546424 19.1537861,21.5122746 17.9388071,21.5122746 Z M18.6535006,22.8701923 C19.7255409,22.6557843 20.6546424,22.0125601 21.2978666,21.1549279 C22.0125601,22.2269681 23.2275391,22.9416617 24.6569261,22.9416617 C25.5860276,22.9416617 26.4436599,22.5843149 27.1583534,22.0840294 L27.1583534,50.100015 L18.6535006,50.100015 L18.6535006,22.8701923 Z M28.5877404,21.8696214 C29.3024339,22.5128456 30.3030048,22.9416617 31.3750451,22.9416617 C32.7329627,22.9416617 34.0194111,22.2269681 34.7341046,21.1549279 C35.3058594,22.0125601 36.3064303,22.6557843 37.3784706,22.8701923 L37.3784706,50.0285457 L28.5877404,50.0285457 L28.5877404,21.8696214 Z M28.8021484,19.5111328 L33.8764724,19.5111328 C33.590595,20.6546424 32.590024,21.5122746 31.3035757,21.5122746 C30.0171274,21.5122746 29.0880258,20.6546424 28.8021484,19.5111328 Z M38.0216947,21.5122746 C36.8067157,21.5122746 35.7346755,20.6546424 35.4487981,19.5111328 L40.523122,19.5111328 C40.3087139,20.6546424 39.308143,21.5122746 38.0216947,21.5122746 Z M47.3127103,19.5111328 C47.0268329,20.6546424 46.026262,21.5122746 44.7398137,21.5122746 C43.4533654,21.5122746 42.4527945,20.6546424 42.1669171,19.5111328 L47.3127103,19.5111328 Z M41.8810397,18.0817458 L41.8810397,1.78673377 L47.1697716,1.78673377 L47.1697716,18.1532151 L41.8810397,18.1532151 L41.8810397,18.0817458 Z M40.4516526,18.0817458 L35.4487981,18.0817458 L35.4487981,1.78673377 L40.4516526,1.78673377 L40.4516526,18.0817458 Z M34.0194111,18.0817458 L28.7306791,18.0817458 L28.7306791,1.78673377 L34.0194111,1.78673377 L34.0194111,18.0817458 Z M27.3012921,18.0817458 L22.0125601,18.0817458 L22.0125601,1.78673377 L27.3012921,1.78673377 L27.3012921,18.0817458 Z M20.5831731,18.0817458 L15.2944411,18.0817458 L15.2944411,1.78673377 L20.5831731,1.78673377 L20.5831731,18.0817458 Z M13.8650541,18.0817458 L8.50485276,18.0817458 L8.50485276,1.78673377 L13.8650541,1.78673377 L13.8650541,18.0817458 Z M13.7935847,19.5111328 C13.5077073,20.6546424 12.5071364,21.5122746 11.2206881,21.5122746 C9.93423978,21.5122746 8.93366887,20.6546424 8.64779147,19.5111328 L13.7935847,19.5111328 Z M7.07546575,19.5111328 C6.78958834,20.6546424 5.78901743,21.5122746 4.50256911,21.5122746 C3.28759014,21.5122746 2.28701923,20.6546424 2.00114183,19.5111328 L7.07546575,19.5111328 Z M4.57403846,22.9416617 C5.93195613,22.9416617 7.21840445,22.2269681 7.93309796,21.1549279 C8.64779147,22.2269681 9.86277043,22.9416617 11.2921575,22.9416617 C12.7215445,22.9416617 13.9365234,22.2269681 14.6512169,21.1549279 C15.2229718,22.0125601 16.2235427,22.6557843 17.2955829,22.8701923 L17.2955829,35.8061448 L3.7878756,35.8061448 L3.7878756,22.8701923 C4.073753,22.9416617 4.28816106,22.9416617 4.57403846,22.9416617 Z M3.7878756,54.5311148 L3.7878756,51.4579327 L52.1726262,51.4579327 L52.1726262,54.5311148 L3.7878756,54.5311148 Z M52.1726262,35.8061448 L38.7363882,35.8061448 L38.7363882,22.8701923 C39.8084285,22.6557843 40.73753,22.0125601 41.3807542,21.1549279 C42.0954477,22.2269681 43.3104267,22.9416617 44.7398137,22.9416617 C46.1692007,22.9416617 47.3841797,22.2269681 48.0988732,21.1549279 C48.8135667,22.2269681 50.0285457,22.9416617 51.4579327,22.9416617 C51.6723407,22.9416617 51.9582181,22.9416617 52.1726262,22.8701923 L52.1726262,35.8061448 L52.1726262,35.8061448 Z M54.0308293,18.0817458 L48.5991587,18.0817458 L48.5991587,1.78673377 L52.6729117,1.78673377 L54.0308293,18.0817458 Z M3.28759014,1.78673377 L7.07546575,1.78673377 L7.07546575,18.1532151 L2.00114183,18.1532151 L3.28759014,1.78673377 Z" id="Shape"></path>
                        <path d="M30.7318209,35.4487981 C30.3030048,35.4487981 30.0171274,35.7346755 30.0171274,36.1634916 L30.0171274,38.1646334 C30.0171274,38.5934495 30.3030048,38.8793269 30.7318209,38.8793269 C31.160637,38.8793269 31.4465144,38.5934495 31.4465144,38.1646334 L31.4465144,36.1634916 C31.4465144,35.8061448 31.160637,35.4487981 30.7318209,35.4487981 Z" id="Shape"></path>
                        <path d="M25.0857422,35.4487981 C24.6569261,35.4487981 24.3710487,35.7346755 24.3710487,36.1634916 L24.3710487,38.1646334 C24.3710487,38.5934495 24.6569261,38.8793269 25.0857422,38.8793269 C25.5145583,38.8793269 25.8004357,38.5934495 25.8004357,38.1646334 L25.8004357,36.1634916 C25.8004357,35.8061448 25.5145583,35.4487981 25.0857422,35.4487981 Z" id="Shape"></path>
                    </g>
                    <g id="noun_895709_cc" transform="translate(660.000000, 88.000000)" fill-rule="nonzero" fill="#000000">
                        <g id="Group">
                            <path d="M55.503,46.344 L70.548,46.344 C71.105,46.344 71.553,45.894 71.553,45.339 C71.553,44.783 71.105,44.333 70.548,44.333 L69.308,44.333 L69.308,31.385 C69.308,30.83 68.858,30.38 68.303,30.38 L57.623,30.38 C57.066,30.38 56.618,30.83 56.618,31.385 L56.618,44.333 L55.503,44.333 C54.948,44.333 54.497,44.783 54.497,45.339 C54.497,45.894 54.948,46.344 55.503,46.344 Z M58.628,32.39 L67.297,32.39 L67.297,36.143 L58.628,36.143 L58.628,32.39 Z M58.628,38.153 L67.297,38.153 L67.297,44.334 L58.628,44.334 L58.628,38.153 Z" id="Shape"></path>
                            <path d="M28.497,44.334 L27.381,44.334 L27.381,31.386 C27.381,30.831 26.933,30.381 26.376,30.381 L15.697,30.381 C15.142,30.381 14.692,30.831 14.692,31.386 L14.692,44.334 L13.452,44.334 C12.897,44.334 12.447,44.784 12.447,45.34 C12.447,45.895 12.897,46.345 13.452,46.345 L28.497,46.345 C29.052,46.345 29.502,45.895 29.502,45.34 C29.502,44.784 29.052,44.334 28.497,44.334 Z M25.371,44.334 L16.702,44.334 L16.702,38.153 L25.371,38.153 L25.371,44.334 Z M25.371,36.143 L16.702,36.143 L16.702,32.39 L25.371,32.39 L25.371,36.143 Z" id="Shape"></path>
                            <path d="M14.906,55.447 C12.266,55.447 11.259,57.861 11.095,59.137 C11.024,59.688 11.413,60.192 11.964,60.262 C12.007,60.268 12.051,60.271 12.093,60.271 C12.591,60.271 13.024,59.9 13.089,59.393 C13.099,59.314 13.355,57.456 14.906,57.456 C16.31,57.456 16.481,59.011 16.5,59.316 C16.529,59.871 16.998,60.299 17.556,60.268 C18.11,60.24 18.536,59.767 18.508,59.213 C18.441,57.911 17.602,55.447 14.906,55.447 Z" id="Shape"></path>
                            <path d="M69.094,55.447 C66.398,55.447 65.559,57.911 65.492,59.215 C65.464,59.767 65.887,60.235 66.437,60.266 C66.99,60.299 67.463,59.875 67.499,59.324 C67.519,59.012 67.689,57.458 69.094,57.458 C70.595,57.458 70.884,59.202 70.911,59.395 C70.975,59.902 71.408,60.273 71.906,60.273 C71.949,60.273 71.992,60.27 72.036,60.264 C72.586,60.194 72.975,59.69 72.904,59.139 C72.74,57.861 71.734,55.447 69.094,55.447 Z" id="Shape"></path>
                            <path d="M82.119,59.46 C80.911,58.061 79.112,57.289 76.77,57.162 C76.479,56.463 75.912,55.367 74.937,54.36 L74.937,29.385 L79.847,29.385 C80.402,29.385 80.852,28.935 80.852,28.38 L80.852,21.236 C80.852,20.839 80.618,20.476 80.253,20.318 L72.625,16.959 L72.625,8.676 L73.604,8.676 C74.162,8.676 74.61,8.227 74.61,7.671 L74.61,1.177 C74.61,0.622 74.162,0.172 73.604,0.172 L60.978,0.172 C60.423,0.172 59.973,0.622 59.973,1.177 L59.973,7.671 C59.973,8.227 60.423,8.676 60.978,8.676 L61.957,8.676 L61.957,12.265 L50,7.001 L48.141,6.184 L42.874,3.866 C42.745,3.81 42.609,3.782 42.468,3.782 L41.53,3.782 C41.391,3.782 41.255,3.81 41.126,3.866 L35.856,6.186 L33.995,7.005 L3.749,20.319 C3.383,20.477 3.148,20.84 3.148,21.238 L3.148,28.381 C3.148,28.937 3.598,29.387 4.153,29.387 L9.066,29.387 L9.066,54.361 C8.089,55.368 7.523,56.464 7.231,57.163 C4.889,57.29 3.09,58.061 1.882,59.461 C-0.098,61.75 0.326,64.838 0.344,64.968 C0.416,65.463 0.84,65.828 1.339,65.828 L31.861,65.828 C31.861,65.828 31.861,65.828 31.863,65.828 L82.663,65.828 C83.161,65.828 83.585,65.463 83.657,64.968 C83.675,64.836 84.099,61.749 82.119,59.46 Z M61.984,2.182 L72.6,2.182 L72.6,6.666 L61.984,6.666 L61.984,2.182 L61.984,2.182 Z M70.616,8.677 L70.616,16.076 L63.967,13.149 L63.967,8.676 L70.616,8.676 L70.616,8.677 Z M9.064,23.837 L9.064,27.376 L5.157,27.376 L5.157,21.893 L35.079,8.724 L36.94,7.906 L41.742,5.792 L42.257,5.792 L47.055,7.904 L48.916,8.722 L62.567,14.73 C62.57,14.732 62.572,14.732 62.574,14.734 L71.224,18.541 C71.226,18.543 71.23,18.543 71.232,18.545 L78.842,21.894 L78.842,27.377 L74.937,27.377 L74.937,23.838 C74.937,23.436 74.698,23.073 74.33,22.915 L47.311,11.265 L45.444,10.459 L42.866,9.348 C42.741,9.293 42.604,9.265 42.468,9.265 L41.531,9.265 C41.394,9.265 41.258,9.293 41.133,9.348 L38.552,10.461 L36.682,11.267 L9.67,22.915 C9.302,23.072 9.064,23.434 9.064,23.837 Z M2.309,63.817 L2.309,63.817 C2.347,62.993 2.558,61.739 3.411,60.761 C4.344,59.694 5.867,59.152 7.941,59.152 C8.391,59.152 8.787,58.848 8.91,58.414 C8.914,58.398 9.376,56.788 10.751,55.52 C11.873,54.482 13.293,53.956 14.976,53.956 C19.766,53.956 21.309,58.959 21.372,59.17 C21.46,59.47 21.684,59.713 21.975,59.825 C22.267,59.938 22.596,59.908 22.861,59.745 C22.885,59.731 25.131,58.379 27.257,59.268 C28.708,59.875 29.814,61.403 30.553,63.817 L2.309,63.817 Z M51.133,63.817 L32.866,63.817 L32.866,32.39 L51.133,32.39 L51.133,63.817 Z M52.138,30.381 L31.862,30.381 C31.307,30.381 30.857,30.831 30.857,31.386 L30.857,59.772 C30.077,58.664 29.134,57.876 28.033,57.416 C26.045,56.582 24.069,57.057 22.893,57.515 C21.836,55.149 19.303,51.948 14.976,51.948 C13.531,51.948 12.226,52.254 11.075,52.854 L11.075,24.5 L37.769,12.988 L39.638,12.182 L39.638,12.182 L41.738,11.276 L42.261,11.276 L44.359,12.18 L44.359,12.18 L46.226,12.986 L72.926,24.5 L72.926,28.373 C72.926,28.377 72.924,28.381 72.924,28.383 C72.924,28.388 72.926,28.389 72.926,28.394 L72.926,52.855 C71.773,52.254 70.468,51.949 69.023,51.949 C64.696,51.949 62.164,55.151 61.106,57.516 C59.93,57.058 57.955,56.583 55.966,57.417 C54.864,57.878 53.922,58.665 53.142,59.773 L53.142,31.387 C53.143,30.831 52.693,30.381 52.138,30.381 Z M53.447,63.817 C54.185,61.411 55.286,59.885 56.731,59.274 C58.837,58.381 61.119,59.732 61.139,59.745 C61.405,59.908 61.734,59.937 62.026,59.825 C62.317,59.713 62.541,59.47 62.629,59.17 C62.646,59.117 64.205,53.956 69.025,53.956 C70.708,53.956 72.129,54.482 73.253,55.519 C74.625,56.788 75.088,58.398 75.092,58.41 C75.21,58.848 75.609,59.151 76.061,59.151 C78.135,59.151 79.661,59.694 80.591,60.761 C81.444,61.74 81.654,62.994 81.693,63.817 L53.447,63.817 Z" id="Shape"></path>
                            <circle id="Oval" cx="37.354" cy="48.298" r="1.38"></circle>
                        </g>
                    </g>
                    <g id="Group-2" transform="translate(323.000000, 211.000000)" fill="#2B2928">
                        <g id="Page-1">
                            <polygon id="Fill-1" points="44.5779316 7.88858701e-05 43.4387475 0.00855911685 43.6330684 24.4365547 44.7718563 24.4278773"></polygon>
                            <polygon id="Fill-2" points="28.4900216 31.3191299 16.6089119 19.6363298 17.4077868 18.8257775 29.2890946 30.5083804"></polygon>
                            <polygon id="Fill-3" points="25.8924204 34.6987386 17.7864055 29.3810421 18.4115603 28.4304674 26.5179713 33.7481639"></polygon>
                            <polygon id="Fill-4" points="24.0163024 38.5209562 15.0236612 34.8831343 15.4513257 33.8284302 24.444165 37.4664493"></polygon>
                            <polygon id="Fill-5" points="22.9261245 42.6353276 13.3903355 40.8217415 13.602484 39.7045203 23.1386691 41.5179093"></polygon>
                            <polygon id="Fill-6" points="13.7085781 53.0626196 13.478602 51.9489483 22.9844802 49.9846902 23.2144563 51.0983615"></polygon>
                            <polygon id="Fill-7" points="15.6502818 58.9091867 15.2057802 57.8615823 24.1395902 54.0813714 24.5840919 55.1287786"></polygon>
                            <polygon id="Fill-8" points="18.6952965 64.2597588 18.0560778 63.318256 26.088009 57.8727644 26.7272278 58.8142672"></polygon>
                            <polygon id="Fill-9" points="17.8444245 73.8668942 17.0328722 73.0687664 28.7269901 61.2001901 29.5387405 61.9983179"></polygon>
                            <polygon id="Fill-10" points="27.5986016 72.6913172 26.6470036 72.0663439 31.970129 63.9685122 32.9215289 64.5934855"></polygon>
                            <polygon id="Fill-11" points="33.1062229 75.4505674 32.0506305 75.0232032 35.6922164 66.0394832 36.7478088 66.4668474"></polygon>
                            <polygon id="Fill-12" points="39.0398052 77.0831105 37.9212219 76.8707103 39.7362704 67.3436638 40.8544575 67.556064"></polygon>
                            <polygon id="Fill-13" points="50.189052 76.9948372 48.2228651 67.4977674 49.3376848 67.2680123 51.3038717 76.7650821"></polygon>
                            <polygon id="Fill-14" points="56.1070847 75.2684791 52.3236703 66.3435291 53.3723298 65.8995988 57.1557442 74.8245489"></polygon>
                            <polygon id="Fill-15" points="61.570236 72.4223164 56.1082534 64.3980457 57.049551 63.7582813 62.5115337 71.782552"></polygon>
                            <polygon id="Fill-16" points="71.3301378 73.4434151 59.4490281 61.7614039 60.247903 60.9506544 72.1292108 72.6326656"></polygon>
                            <polygon id="Fill-17" points="70.3269586 63.8504003 62.2092567 58.5216598 62.8344115 57.5710851 70.9525095 62.8998256"></polygon>
                            <polygon id="Fill-18" points="73.2866979 58.4528319 64.2940567 54.8146156 64.7219193 53.7601087 73.7145605 57.398325"></polygon>
                            <polygon id="Fill-19" points="75.1353811 52.5762882 65.5995922 50.7627021 65.8117407 49.645481 75.3479258 51.4588699"></polygon>
                            <polygon id="Fill-20" points="65.7536029 42.2962564 65.5236268 41.1825851 75.0295049 39.218327 75.2594811 40.3319983"></polygon>
                            <polygon id="Fill-21" points="64.5982551 38.1996738 64.1537534 37.1520694 73.0875635 33.372253 73.5320652 34.4198573"></polygon>
                            <polygon id="Fill-22" points="62.6623156 34.4076103 62.0219084 33.4672907 70.0425488 28.0217991 70.6829561 28.9621187"></polygon>
                            <polygon id="Fill-23" points="60.0108552 31.0695744 59.1993029 30.2714467 70.8934209 18.4024759 71.7051712 19.2004065"></polygon>
                            <polygon id="Fill-24" points="56.779542 28.3122569 55.827944 27.6872836 61.1510694 19.5902407 62.1024693 20.2148196"></polygon>
                            <polygon id="Fill-25" points="53.0574942 26.2294333 52.0019018 25.8020691 55.6434877 16.8301819 56.6990801 17.2575461"></polygon>
                            <polygon id="Fill-26" points="49.0018324 24.9264754 47.8832491 24.7130891 49.6986938 15.1976783 50.8172771 15.4112618"></polygon>
                            <polygon id="Fill-27" points="39.4002002 25.0025017 37.4348056 15.5170675 38.5496253 15.2859319 40.5150199 24.7715633"></polygon>
                            <polygon id="Fill-28" points="35.3773808 26.3693768 31.5939665 17.4562596 32.6426259 17.0121322 36.4260403 25.9254466"></polygon>
                            <polygon id="Fill-29" points="31.6888489 28.5109113 26.237959 20.4986707 27.1796529 19.8591035 32.6301466 27.8711469"></polygon>
                            <polygon id="Fill-30" points="0 46.071103 0.00871571903 47.2086373 22.6505691 47.0291719 22.6414572 45.8916377"></polygon>
                            <polygon id="Fill-31" points="17.8444245 73.8668942 17.0328722 73.0687664 28.7269901 61.2001901 29.5387405 61.9983179"></polygon>
                            <polygon id="Fill-32" points="43.9771412 67.8418873 44.1577943 90.6199849 45.2969784 90.610913 45.1161272 67.8332098"></polygon>
                            <polygon id="Fill-33" points="71.3301378 73.4434151 59.4490281 61.7614039 60.247903 60.9506544 72.1292108 72.6326656"></polygon>
                            <polygon id="Fill-34" points="66.0903268 45.5474981 66.0990425 46.6854267 88.7519886 46.5061586 88.7430748 45.3682299"></polygon>
                            <polygon id="Fill-35" points="60.0108552 31.0695744 59.1993029 30.2714467 70.8934209 18.4024759 71.7051712 19.2004065"></polygon>
                        </g>
                    </g>
                    <polyline id="Path-7" stroke="#000000" stroke-width="2" points="78 78.5027472 123.502747 33 172.064535 33"></polyline>
                    <polyline id="Path-7-Copy" stroke="#000000" stroke-width="2" transform="translate(613.032268, 55.751374) scale(-1, 1) translate(-613.032268, -55.751374) " points="566 78.5027472 611.502747 33 660.064535 33"></polyline>
                    <polyline id="Path-7-Copy-2" stroke="#000000" stroke-width="2" transform="translate(547.451139, 235.500000) scale(-1, 1) translate(-547.451139, -235.500000) " points="434.902278 214 478.425844 257 660 257"></polyline>
                    <polyline id="Path-7-Copy-3" stroke="#000000" stroke-width="2" points="78 214 121.523566 257 303.097722 257"></polyline>
                    <path d="M257,34 L303.097722,34" id="Path-8" stroke="#000000" stroke-width="2"></path>
                    <path d="M430,34 L476.097722,34" id="Path-8-Copy" stroke="#000000" stroke-width="2"></path>
                    <path d="M1.355,189.734 C1.355,189.874 1.467,190 1.621,190 L2.909,190 C3.049,190 3.175,189.874 3.175,189.734 L3.175,186.192 L6.633,186.192 C6.773,186.192 6.899,186.066 6.899,185.926 L6.899,184.778 C6.899,184.638 6.773,184.512 6.633,184.512 L3.175,184.512 L3.175,181.88 L7.319,181.88 C7.473,181.88 7.585,181.754 7.585,181.614 L7.585,180.466 C7.585,180.326 7.473,180.2 7.319,180.2 L1.621,180.2 C1.467,180.2 1.355,180.326 1.355,180.466 L1.355,189.734 Z M8.411,187.942 C8.411,186.794 9.349,185.912 10.987,185.912 C11.645,185.912 12.233,186.094 12.233,186.094 C12.261,185.268 12.023,184.876 11.337,184.876 C10.749,184.876 9.895,185.002 9.517,185.114 C9.307,185.184 9.181,185.03 9.153,184.834 L9.013,184.106 C8.957,183.868 9.083,183.756 9.223,183.714 C9.363,183.658 10.385,183.392 11.435,183.392 C13.451,183.392 13.871,184.442 13.871,186.206 L13.871,189.692 C13.871,189.86 13.731,190 13.563,190 L13.087,190 C12.975,190 12.891,189.958 12.807,189.776 L12.625,189.342 C12.247,189.706 11.603,190.154 10.595,190.154 C9.307,190.154 8.411,189.328 8.411,187.942 Z M10.091,187.942 C10.091,188.488 10.427,188.852 11.029,188.852 C11.603,188.852 12.107,188.404 12.191,188.166 L12.191,187.214 C12.191,187.214 11.757,187.018 11.239,187.018 C10.497,187.018 10.091,187.368 10.091,187.942 Z M15.607,189.692 C15.607,189.86 15.761,190 15.915,190 L16.993,190 C17.203,190 17.357,189.93 17.357,189.692 L17.357,185.66 C17.469,185.436 17.889,184.988 18.589,184.988 C18.883,184.988 19.037,185.044 19.191,185.114 C19.345,185.184 19.499,185.128 19.569,184.974 L19.989,184.022 C20.171,183.602 19.541,183.392 18.771,183.392 C17.777,183.392 17.175,184.05 16.951,184.372 L16.713,183.742 C16.657,183.602 16.587,183.532 16.433,183.532 L15.915,183.532 C15.761,183.532 15.607,183.658 15.607,183.84 L15.607,189.692 Z M21.025,189.692 C21.025,189.86 21.179,190 21.333,190 L22.467,190 C22.621,190 22.775,189.86 22.775,189.692 L22.775,185.996 C22.929,185.548 23.223,184.988 24.021,184.988 C24.847,184.988 25.085,185.506 25.085,186.346 L25.085,189.692 C25.085,189.86 25.211,190 25.393,190 L26.541,190 C26.695,190 26.849,189.86 26.849,189.692 L26.849,186.276 C26.849,185.982 26.821,185.66 26.821,185.66 C26.821,185.66 27.087,184.988 28.025,184.988 C28.837,184.988 29.145,185.506 29.145,186.346 L29.145,189.692 C29.145,189.86 29.285,190 29.453,190 L30.573,190 C30.755,190 30.895,189.86 30.895,189.692 L30.895,186.388 C30.895,184.708 30.405,183.392 28.333,183.392 C27.171,183.392 26.527,184.078 26.247,184.372 C25.715,183.728 25.253,183.392 24.315,183.392 C23.181,183.392 22.607,184.022 22.341,184.33 L22.103,183.714 C22.075,183.602 21.977,183.532 21.837,183.532 L21.333,183.532 C21.179,183.532 21.025,183.658 21.025,183.84 L21.025,189.692 Z M32.155,181.082 C32.155,181.628 32.463,182.062 33.023,182.062 C33.205,182.062 33.373,182.006 33.499,181.922 C33.513,182.006 33.527,182.076 33.527,182.188 C33.527,182.776 33.205,183.406 32.827,183.896 C32.743,184.008 32.701,184.134 32.813,184.218 L33.205,184.498 C33.317,184.568 33.415,184.596 33.499,184.484 C34.003,183.812 34.507,182.93 34.507,181.726 C34.507,180.634 33.933,180.06 33.247,180.06 C32.617,180.06 32.155,180.494 32.155,181.082 Z M37.853,190.154 C39.477,190.154 40.345,189.244 40.345,188.222 C40.345,186.934 39.449,186.486 38.203,185.982 C37.601,185.73 37.279,185.576 37.279,185.282 C37.279,185.072 37.461,184.862 37.895,184.862 C38.427,184.862 38.875,185.044 39.183,185.184 C39.323,185.24 39.491,185.212 39.589,185.058 L39.953,184.316 C40.037,184.148 39.953,183.98 39.813,183.868 C39.463,183.644 38.847,183.392 37.895,183.392 C36.313,183.392 35.571,184.302 35.571,185.282 C35.571,186.262 36.131,186.85 37.377,187.326 C38.231,187.662 38.595,187.928 38.595,188.222 C38.595,188.502 38.371,188.684 37.881,188.684 C37.209,188.684 36.747,188.446 36.453,188.264 C36.299,188.166 36.145,188.222 36.075,188.376 L35.655,189.216 C35.585,189.356 35.655,189.51 35.739,189.566 C36.103,189.818 36.775,190.154 37.853,190.154 Z M44.629,187.942 C44.629,186.794 45.567,185.912 47.205,185.912 C47.863,185.912 48.451,186.094 48.451,186.094 C48.479,185.268 48.241,184.876 47.555,184.876 C46.967,184.876 46.113,185.002 45.735,185.114 C45.525,185.184 45.399,185.03 45.371,184.834 L45.231,184.106 C45.175,183.868 45.301,183.756 45.441,183.714 C45.581,183.658 46.603,183.392 47.653,183.392 C49.669,183.392 50.089,184.442 50.089,186.206 L50.089,189.692 C50.089,189.86 49.949,190 49.781,190 L49.305,190 C49.193,190 49.109,189.958 49.025,189.776 L48.843,189.342 C48.465,189.706 47.821,190.154 46.813,190.154 C45.525,190.154 44.629,189.328 44.629,187.942 Z M46.309,187.942 C46.309,188.488 46.645,188.852 47.247,188.852 C47.821,188.852 48.325,188.404 48.409,188.166 L48.409,187.214 C48.409,187.214 47.975,187.018 47.457,187.018 C46.715,187.018 46.309,187.368 46.309,187.942 Z M51.825,189.692 C51.825,189.86 51.979,190 52.133,190 L53.169,190 C53.477,190 53.575,189.93 53.575,189.692 L53.575,185.996 C53.729,185.548 54.135,184.988 54.975,184.988 C55.759,184.988 56.095,185.506 56.095,186.346 L56.095,189.692 C56.095,189.86 56.235,190 56.403,190 L57.537,190 C57.691,190 57.845,189.86 57.845,189.692 L57.845,186.346 C57.845,184.778 57.313,183.392 55.255,183.392 C54.009,183.392 53.407,184.064 53.169,184.33 L52.931,183.728 C52.889,183.602 52.819,183.532 52.665,183.532 L52.133,183.532 C51.979,183.532 51.825,183.658 51.825,183.84 L51.825,189.692 Z M59.175,186.766 C59.175,184.876 60.449,183.392 62.381,183.392 C63.025,183.392 63.641,183.546 63.935,183.658 L63.935,180.508 C63.935,180.354 64.089,180.2 64.243,180.2 L65.377,180.2 C65.545,180.2 65.685,180.354 65.685,180.508 L65.685,189.692 C65.685,189.86 65.545,190 65.377,190 L64.859,190 C64.705,190 64.607,189.874 64.551,189.692 L64.383,189.188 C64.383,189.188 63.641,190.154 62.269,190.154 C60.505,190.154 59.175,188.726 59.175,186.766 Z M63.935,187.662 L63.935,185.352 C63.935,185.352 63.403,184.988 62.591,184.988 C61.527,184.988 60.981,185.856 60.981,186.766 C60.981,187.676 61.499,188.558 62.507,188.558 C63.347,188.558 63.795,188.026 63.935,187.662 Z M71.131,189.734 L71.131,180.466 C71.131,180.326 71.243,180.2 71.397,180.2 L74.687,180.2 C76.409,180.2 77.823,181.6 77.823,183.294 C77.823,185.03 76.409,186.444 74.701,186.444 L72.951,186.444 L72.951,189.734 C72.951,189.874 72.825,190 72.685,190 L71.397,190 C71.243,190 71.131,189.874 71.131,189.734 Z M72.951,184.736 L74.631,184.736 C75.415,184.736 76.017,184.106 76.017,183.28 C76.017,182.51 75.415,181.922 74.631,181.922 L72.951,181.922 L72.951,184.736 Z M79.083,189.692 C79.083,189.86 79.237,190 79.391,190 L80.469,190 C80.679,190 80.833,189.93 80.833,189.692 L80.833,185.66 C80.945,185.436 81.365,184.988 82.065,184.988 C82.359,184.988 82.513,185.044 82.667,185.114 C82.821,185.184 82.975,185.128 83.045,184.974 L83.465,184.022 C83.647,183.602 83.017,183.392 82.247,183.392 C81.253,183.392 80.651,184.05 80.427,184.372 L80.189,183.742 C80.133,183.602 80.063,183.532 79.909,183.532 L79.391,183.532 C79.237,183.532 79.083,183.658 79.083,183.84 L79.083,189.692 Z M84.109,186.752 C84.109,184.932 85.593,183.392 87.413,183.392 C89.247,183.392 90.731,184.932 90.731,186.752 C90.731,188.6 89.247,190.154 87.413,190.154 C85.593,190.154 84.109,188.6 84.109,186.752 Z M85.733,186.752 C85.733,187.746 86.475,188.558 87.413,188.558 C88.351,188.558 89.107,187.746 89.107,186.752 C89.107,185.772 88.351,184.988 87.413,184.988 C86.475,184.988 85.733,185.772 85.733,186.752 Z M91.725,186.766 C91.725,184.876 92.999,183.392 94.931,183.392 C95.575,183.392 96.191,183.546 96.485,183.658 L96.485,180.508 C96.485,180.354 96.639,180.2 96.793,180.2 L97.927,180.2 C98.095,180.2 98.235,180.354 98.235,180.508 L98.235,189.692 C98.235,189.86 98.095,190 97.927,190 L97.409,190 C97.255,190 97.157,189.874 97.101,189.692 L96.933,189.188 C96.933,189.188 96.191,190.154 94.819,190.154 C93.055,190.154 91.725,188.726 91.725,186.766 Z M96.485,187.662 L96.485,185.352 C96.485,185.352 95.953,184.988 95.141,184.988 C94.077,184.988 93.531,185.856 93.531,186.766 C93.531,187.676 94.049,188.558 95.057,188.558 C95.897,188.558 96.345,188.026 96.485,187.662 Z M99.957,187.27 C99.957,188.908 100.391,190.154 102.393,190.154 C103.387,190.154 104.059,189.566 104.395,189.216 L104.577,189.762 C104.619,189.888 104.731,190 104.885,190 L105.389,190 C105.557,190 105.697,189.86 105.697,189.692 L105.697,183.84 C105.697,183.658 105.557,183.532 105.389,183.532 L104.297,183.532 C104.031,183.532 103.947,183.588 103.947,183.84 L103.947,187.354 C103.849,187.914 103.513,188.558 102.799,188.558 C102.001,188.558 101.707,188.124 101.707,187.27 L101.707,183.84 C101.707,183.658 101.567,183.532 101.399,183.532 L100.265,183.532 C100.097,183.532 99.957,183.658 99.957,183.84 L99.957,187.27 Z M107.097,186.766 C107.097,188.712 108.623,190.154 110.513,190.154 C111.661,190.154 112.529,189.65 113.075,188.796 C113.187,188.628 113.117,188.474 112.963,188.334 L112.333,187.802 C112.221,187.704 112.025,187.732 111.927,187.844 C111.647,188.166 111.269,188.558 110.555,188.558 C109.547,188.558 108.861,187.774 108.861,186.766 C108.861,185.772 109.561,184.988 110.569,184.988 C111.171,184.988 111.549,185.254 111.857,185.548 C111.983,185.674 112.137,185.744 112.277,185.59 L112.865,184.946 C113.005,184.806 113.075,184.624 112.935,184.484 C112.319,183.826 111.535,183.392 110.527,183.392 C108.609,183.392 107.097,184.862 107.097,186.766 Z M113.985,186.766 C113.985,184.946 115.329,183.392 117.247,183.392 C118.927,183.392 120.215,184.638 120.215,186.388 C120.215,186.486 120.201,186.71 120.187,186.808 C120.173,186.976 120.019,187.102 119.879,187.102 L115.735,187.102 C115.749,187.9 116.407,188.6 117.345,188.6 C117.989,188.6 118.437,188.362 118.731,188.124 C118.885,187.998 119.053,187.984 119.151,188.124 L119.697,188.852 C119.809,188.978 119.823,189.132 119.669,189.272 C119.109,189.748 118.311,190.154 117.261,190.154 C115.329,190.154 113.985,188.614 113.985,186.766 Z M115.833,185.954 L118.451,185.954 C118.423,185.324 117.919,184.834 117.205,184.834 C116.421,184.834 115.917,185.31 115.833,185.954 Z M121.531,189.692 C121.531,189.86 121.685,190 121.839,190 L122.917,190 C123.127,190 123.281,189.93 123.281,189.692 L123.281,185.66 C123.393,185.436 123.813,184.988 124.513,184.988 C124.807,184.988 124.961,185.044 125.115,185.114 C125.269,185.184 125.423,185.128 125.493,184.974 L125.913,184.022 C126.095,183.602 125.465,183.392 124.695,183.392 C123.701,183.392 123.099,184.05 122.875,184.372 L122.637,183.742 C122.581,183.602 122.511,183.532 122.357,183.532 L121.839,183.532 C121.685,183.532 121.531,183.658 121.531,183.84 L121.531,189.692 Z M128.867,190.154 C130.491,190.154 131.359,189.244 131.359,188.222 C131.359,186.934 130.463,186.486 129.217,185.982 C128.615,185.73 128.293,185.576 128.293,185.282 C128.293,185.072 128.475,184.862 128.909,184.862 C129.441,184.862 129.889,185.044 130.197,185.184 C130.337,185.24 130.505,185.212 130.603,185.058 L130.967,184.316 C131.051,184.148 130.967,183.98 130.827,183.868 C130.477,183.644 129.861,183.392 128.909,183.392 C127.327,183.392 126.585,184.302 126.585,185.282 C126.585,186.262 127.145,186.85 128.391,187.326 C129.245,187.662 129.609,187.928 129.609,188.222 C129.609,188.502 129.385,188.684 128.895,188.684 C128.223,188.684 127.761,188.446 127.467,188.264 C127.313,188.166 127.159,188.222 127.089,188.376 L126.669,189.216 C126.599,189.356 126.669,189.51 126.753,189.566 C127.117,189.818 127.789,190.154 128.867,190.154 Z" id="Farm’s-and-Producers" fill="#000000"></path>
                    <path d="M349.268,326.14 C351.242,326.14 352.488,324.81 352.488,323.368 C352.488,321.562 350.92,320.75 349.562,320.204 C348.428,319.742 347.91,319.294 347.91,318.636 C347.91,318.104 348.344,317.656 349.142,317.656 C349.912,317.656 350.486,318.048 351.088,318.426 C351.256,318.538 351.466,318.426 351.578,318.258 L352.11,317.46 C352.208,317.32 352.166,317.082 352.026,316.998 C351.746,316.788 350.654,316.06 349.226,316.06 C347,316.06 346.076,317.502 346.076,318.748 C346.076,320.4 347.392,321.24 348.708,321.772 C349.884,322.248 350.486,322.738 350.486,323.452 C350.486,324.054 349.94,324.53 349.212,324.53 C348.302,324.53 347.672,324.096 347.098,323.662 C346.972,323.564 346.734,323.564 346.622,323.76 L346.118,324.628 C345.992,324.852 346.048,324.936 346.188,325.048 C346.594,325.398 347.504,326.14 349.268,326.14 Z M353.538,322.752 C353.538,320.932 355.022,319.392 356.842,319.392 C358.676,319.392 360.16,320.932 360.16,322.752 C360.16,324.6 358.676,326.154 356.842,326.154 C355.022,326.154 353.538,324.6 353.538,322.752 Z M355.162,322.752 C355.162,323.746 355.904,324.558 356.842,324.558 C357.78,324.558 358.536,323.746 358.536,322.752 C358.536,321.772 357.78,320.988 356.842,320.988 C355.904,320.988 355.162,321.772 355.162,322.752 Z M361.476,323.27 C361.476,324.908 361.91,326.154 363.912,326.154 C364.906,326.154 365.578,325.566 365.914,325.216 L366.096,325.762 C366.138,325.888 366.25,326 366.404,326 L366.908,326 C367.076,326 367.216,325.86 367.216,325.692 L367.216,319.84 C367.216,319.658 367.076,319.532 366.908,319.532 L365.816,319.532 C365.55,319.532 365.466,319.588 365.466,319.84 L365.466,323.354 C365.368,323.914 365.032,324.558 364.318,324.558 C363.52,324.558 363.226,324.124 363.226,323.27 L363.226,319.84 C363.226,319.658 363.086,319.532 362.918,319.532 L361.784,319.532 C361.616,319.532 361.476,319.658 361.476,319.84 L361.476,323.27 Z M369.022,325.692 C369.022,325.86 369.176,326 369.33,326 L370.464,326 C370.618,326 370.772,325.86 370.772,325.692 L370.772,316.508 C370.772,316.354 370.618,316.2 370.464,316.2 L369.33,316.2 C369.176,316.2 369.022,316.354 369.022,316.508 L369.022,325.692 Z M372.13,323.942 C372.13,322.794 373.068,321.912 374.706,321.912 C375.364,321.912 375.952,322.094 375.952,322.094 C375.98,321.268 375.742,320.876 375.056,320.876 C374.468,320.876 373.614,321.002 373.236,321.114 C373.026,321.184 372.9,321.03 372.872,320.834 L372.732,320.106 C372.676,319.868 372.802,319.756 372.942,319.714 C373.082,319.658 374.104,319.392 375.154,319.392 C377.17,319.392 377.59,320.442 377.59,322.206 L377.59,325.692 C377.59,325.86 377.45,326 377.282,326 L376.806,326 C376.694,326 376.61,325.958 376.526,325.776 L376.344,325.342 C375.966,325.706 375.322,326.154 374.314,326.154 C373.026,326.154 372.13,325.328 372.13,323.942 Z M373.81,323.942 C373.81,324.488 374.146,324.852 374.748,324.852 C375.322,324.852 375.826,324.404 375.91,324.166 L375.91,323.214 C375.91,323.214 375.476,323.018 374.958,323.018 C374.216,323.018 373.81,323.368 373.81,323.942 Z M379.326,325.692 C379.326,325.86 379.48,326 379.634,326 L380.712,326 C380.922,326 381.076,325.93 381.076,325.692 L381.076,321.66 C381.188,321.436 381.608,320.988 382.308,320.988 C382.602,320.988 382.756,321.044 382.91,321.114 C383.064,321.184 383.218,321.128 383.288,320.974 L383.708,320.022 C383.89,319.602 383.26,319.392 382.49,319.392 C381.496,319.392 380.894,320.05 380.67,320.372 L380.432,319.742 C380.376,319.602 380.306,319.532 380.152,319.532 L379.634,319.532 C379.48,319.532 379.326,319.658 379.326,319.84 L379.326,325.692 Z M384.296,323.942 C384.296,322.794 385.234,321.912 386.872,321.912 C387.53,321.912 388.118,322.094 388.118,322.094 C388.146,321.268 387.908,320.876 387.222,320.876 C386.634,320.876 385.78,321.002 385.402,321.114 C385.192,321.184 385.066,321.03 385.038,320.834 L384.898,320.106 C384.842,319.868 384.968,319.756 385.108,319.714 C385.248,319.658 386.27,319.392 387.32,319.392 C389.336,319.392 389.756,320.442 389.756,322.206 L389.756,325.692 C389.756,325.86 389.616,326 389.448,326 L388.972,326 C388.86,326 388.776,325.958 388.692,325.776 L388.51,325.342 C388.132,325.706 387.488,326.154 386.48,326.154 C385.192,326.154 384.296,325.328 384.296,323.942 Z M385.976,323.942 C385.976,324.488 386.312,324.852 386.914,324.852 C387.488,324.852 387.992,324.404 388.076,324.166 L388.076,323.214 C388.076,323.214 387.642,323.018 387.124,323.018 C386.382,323.018 385.976,323.368 385.976,323.942 Z" id="Soulara" fill="#000000"></path>
                    <path d="M176.998,90.944 C177.026,91.056 177.138,91.14 177.25,91.14 L177.474,91.14 C177.614,91.14 177.67,91.07 177.712,90.986 L180.19,84.644 L180.26,84.644 L182.766,90.986 C182.794,91.07 182.878,91.14 183.004,91.14 L183.228,91.14 C183.34,91.14 183.452,91.056 183.48,90.944 L186.126,81.536 C186.182,81.34 186.07,81.2 185.874,81.2 L184.586,81.2 C184.474,81.2 184.362,81.298 184.334,81.396 L182.906,86.982 L182.85,86.982 L180.61,81.214 C180.582,81.13 180.512,81.06 180.372,81.06 L180.12,81.06 C179.98,81.06 179.91,81.13 179.882,81.214 L177.656,86.982 L177.6,86.982 L176.144,81.396 C176.116,81.298 176.004,81.2 175.892,81.2 L174.604,81.2 C174.408,81.2 174.296,81.34 174.352,81.536 L176.998,90.944 Z M187.33,90.692 C187.33,90.86 187.484,91 187.638,91 L188.744,91 C188.996,91 189.08,90.874 189.08,90.692 L189.08,87.122 C189.248,86.464 189.668,85.988 190.424,85.988 C191.194,85.988 191.6,86.534 191.6,87.43 L191.6,90.692 C191.6,90.86 191.74,91 191.908,91 L193.042,91 C193.196,91 193.35,90.86 193.35,90.692 L193.35,87.444 C193.35,85.82 192.79,84.392 190.732,84.392 C189.962,84.392 189.402,84.658 189.08,84.938 L189.08,81.508 C189.08,81.354 188.94,81.2 188.772,81.2 L187.638,81.2 C187.484,81.2 187.33,81.354 187.33,81.508 L187.33,90.692 Z M194.666,87.752 C194.666,85.932 196.15,84.392 197.97,84.392 C199.804,84.392 201.288,85.932 201.288,87.752 C201.288,89.6 199.804,91.154 197.97,91.154 C196.15,91.154 194.666,89.6 194.666,87.752 Z M196.29,87.752 C196.29,88.746 197.032,89.558 197.97,89.558 C198.908,89.558 199.664,88.746 199.664,87.752 C199.664,86.772 198.908,85.988 197.97,85.988 C197.032,85.988 196.29,86.772 196.29,87.752 Z M202.688,90.692 C202.688,90.86 202.842,91 202.996,91 L204.13,91 C204.284,91 204.438,90.86 204.438,90.692 L204.438,81.508 C204.438,81.354 204.284,81.2 204.13,81.2 L202.996,81.2 C202.842,81.2 202.688,81.354 202.688,81.508 L202.688,90.692 Z M205.852,87.766 C205.852,85.946 207.196,84.392 209.114,84.392 C210.794,84.392 212.082,85.638 212.082,87.388 C212.082,87.486 212.068,87.71 212.054,87.808 C212.04,87.976 211.886,88.102 211.746,88.102 L207.602,88.102 C207.616,88.9 208.274,89.6 209.212,89.6 C209.856,89.6 210.304,89.362 210.598,89.124 C210.752,88.998 210.92,88.984 211.018,89.124 L211.564,89.852 C211.676,89.978 211.69,90.132 211.536,90.272 C210.976,90.748 210.178,91.154 209.128,91.154 C207.196,91.154 205.852,89.614 205.852,87.766 Z M207.7,86.954 L210.318,86.954 C210.29,86.324 209.786,85.834 209.072,85.834 C208.288,85.834 207.784,86.31 207.7,86.954 Z M215.316,91.154 C216.94,91.154 217.808,90.244 217.808,89.222 C217.808,87.934 216.912,87.486 215.666,86.982 C215.064,86.73 214.742,86.576 214.742,86.282 C214.742,86.072 214.924,85.862 215.358,85.862 C215.89,85.862 216.338,86.044 216.646,86.184 C216.786,86.24 216.954,86.212 217.052,86.058 L217.416,85.316 C217.5,85.148 217.416,84.98 217.276,84.868 C216.926,84.644 216.31,84.392 215.358,84.392 C213.776,84.392 213.034,85.302 213.034,86.282 C213.034,87.262 213.594,87.85 214.84,88.326 C215.694,88.662 216.058,88.928 216.058,89.222 C216.058,89.502 215.834,89.684 215.344,89.684 C214.672,89.684 214.21,89.446 213.916,89.264 C213.762,89.166 213.608,89.222 213.538,89.376 L213.118,90.216 C213.048,90.356 213.118,90.51 213.202,90.566 C213.566,90.818 214.238,91.154 215.316,91.154 Z M218.732,88.942 C218.732,87.794 219.67,86.912 221.308,86.912 C221.966,86.912 222.554,87.094 222.554,87.094 C222.582,86.268 222.344,85.876 221.658,85.876 C221.07,85.876 220.216,86.002 219.838,86.114 C219.628,86.184 219.502,86.03 219.474,85.834 L219.334,85.106 C219.278,84.868 219.404,84.756 219.544,84.714 C219.684,84.658 220.706,84.392 221.756,84.392 C223.772,84.392 224.192,85.442 224.192,87.206 L224.192,90.692 C224.192,90.86 224.052,91 223.884,91 L223.408,91 C223.296,91 223.212,90.958 223.128,90.776 L222.946,90.342 C222.568,90.706 221.924,91.154 220.916,91.154 C219.628,91.154 218.732,90.328 218.732,88.942 Z M220.412,88.942 C220.412,89.488 220.748,89.852 221.35,89.852 C221.924,89.852 222.428,89.404 222.512,89.166 L222.512,88.214 C222.512,88.214 222.078,88.018 221.56,88.018 C220.818,88.018 220.412,88.368 220.412,88.942 Z M225.942,90.692 C225.942,90.86 226.096,91 226.25,91 L227.384,91 C227.538,91 227.692,90.86 227.692,90.692 L227.692,81.508 C227.692,81.354 227.538,81.2 227.384,81.2 L226.25,81.2 C226.096,81.2 225.942,81.354 225.942,81.508 L225.942,90.692 Z M229.106,87.766 C229.106,85.946 230.45,84.392 232.368,84.392 C234.048,84.392 235.336,85.638 235.336,87.388 C235.336,87.486 235.322,87.71 235.308,87.808 C235.294,87.976 235.14,88.102 235,88.102 L230.856,88.102 C230.87,88.9 231.528,89.6 232.466,89.6 C233.11,89.6 233.558,89.362 233.852,89.124 C234.006,88.998 234.174,88.984 234.272,89.124 L234.818,89.852 C234.93,89.978 234.944,90.132 234.79,90.272 C234.23,90.748 233.432,91.154 232.382,91.154 C230.45,91.154 229.106,89.614 229.106,87.766 Z M230.954,86.954 L233.572,86.954 C233.544,86.324 233.04,85.834 232.326,85.834 C231.542,85.834 231.038,86.31 230.954,86.954 Z M236.652,90.692 C236.652,90.86 236.806,91 236.96,91 L238.038,91 C238.248,91 238.402,90.93 238.402,90.692 L238.402,86.66 C238.514,86.436 238.934,85.988 239.634,85.988 C239.928,85.988 240.082,86.044 240.236,86.114 C240.39,86.184 240.544,86.128 240.614,85.974 L241.034,85.022 C241.216,84.602 240.586,84.392 239.816,84.392 C238.822,84.392 238.22,85.05 237.996,85.372 L237.758,84.742 C237.702,84.602 237.632,84.532 237.478,84.532 L236.96,84.532 C236.806,84.532 236.652,84.658 236.652,84.84 L236.652,90.692 Z M243.988,91.154 C245.612,91.154 246.48,90.244 246.48,89.222 C246.48,87.934 245.584,87.486 244.338,86.982 C243.736,86.73 243.414,86.576 243.414,86.282 C243.414,86.072 243.596,85.862 244.03,85.862 C244.562,85.862 245.01,86.044 245.318,86.184 C245.458,86.24 245.626,86.212 245.724,86.058 L246.088,85.316 C246.172,85.148 246.088,84.98 245.948,84.868 C245.598,84.644 244.982,84.392 244.03,84.392 C242.448,84.392 241.706,85.302 241.706,86.282 C241.706,87.262 242.266,87.85 243.512,88.326 C244.366,88.662 244.73,88.928 244.73,89.222 C244.73,89.502 244.506,89.684 244.016,89.684 C243.344,89.684 242.882,89.446 242.588,89.264 C242.434,89.166 242.28,89.222 242.21,89.376 L241.79,90.216 C241.72,90.356 241.79,90.51 241.874,90.566 C242.238,90.818 242.91,91.154 243.988,91.154 Z" id="Wholesalers" fill="#000000"></path>
                    <path d="M328.337,90.944 C328.365,91.056 328.477,91.14 328.589,91.14 L328.813,91.14 C328.953,91.14 329.009,91.07 329.051,90.986 L331.529,84.644 L331.599,84.644 L334.105,90.986 C334.133,91.07 334.217,91.14 334.343,91.14 L334.567,91.14 C334.679,91.14 334.791,91.056 334.819,90.944 L337.465,81.536 C337.521,81.34 337.409,81.2 337.213,81.2 L335.925,81.2 C335.813,81.2 335.701,81.298 335.673,81.396 L334.245,86.982 L334.189,86.982 L331.949,81.214 C331.921,81.13 331.851,81.06 331.711,81.06 L331.459,81.06 C331.319,81.06 331.249,81.13 331.221,81.214 L328.995,86.982 L328.939,86.982 L327.483,81.396 C327.455,81.298 327.343,81.2 327.231,81.2 L325.943,81.2 C325.747,81.2 325.635,81.34 325.691,81.536 L328.337,90.944 Z M338.221,88.942 C338.221,87.794 339.159,86.912 340.797,86.912 C341.455,86.912 342.043,87.094 342.043,87.094 C342.071,86.268 341.833,85.876 341.147,85.876 C340.559,85.876 339.705,86.002 339.327,86.114 C339.117,86.184 338.991,86.03 338.963,85.834 L338.823,85.106 C338.767,84.868 338.893,84.756 339.033,84.714 C339.173,84.658 340.195,84.392 341.245,84.392 C343.261,84.392 343.681,85.442 343.681,87.206 L343.681,90.692 C343.681,90.86 343.541,91 343.373,91 L342.897,91 C342.785,91 342.701,90.958 342.617,90.776 L342.435,90.342 C342.057,90.706 341.413,91.154 340.405,91.154 C339.117,91.154 338.221,90.328 338.221,88.942 Z M339.901,88.942 C339.901,89.488 340.237,89.852 340.839,89.852 C341.413,89.852 341.917,89.404 342.001,89.166 L342.001,88.214 C342.001,88.214 341.567,88.018 341.049,88.018 C340.307,88.018 339.901,88.368 339.901,88.942 Z M345.417,90.692 C345.417,90.86 345.571,91 345.725,91 L346.803,91 C347.013,91 347.167,90.93 347.167,90.692 L347.167,86.66 C347.279,86.436 347.699,85.988 348.399,85.988 C348.693,85.988 348.847,86.044 349.001,86.114 C349.155,86.184 349.309,86.128 349.379,85.974 L349.799,85.022 C349.981,84.602 349.351,84.392 348.581,84.392 C347.587,84.392 346.985,85.05 346.761,85.372 L346.523,84.742 C346.467,84.602 346.397,84.532 346.243,84.532 L345.725,84.532 C345.571,84.532 345.417,84.658 345.417,84.84 L345.417,90.692 Z M350.443,87.766 C350.443,85.946 351.787,84.392 353.705,84.392 C355.385,84.392 356.673,85.638 356.673,87.388 C356.673,87.486 356.659,87.71 356.645,87.808 C356.631,87.976 356.477,88.102 356.337,88.102 L352.193,88.102 C352.207,88.9 352.865,89.6 353.803,89.6 C354.447,89.6 354.895,89.362 355.189,89.124 C355.343,88.998 355.511,88.984 355.609,89.124 L356.155,89.852 C356.267,89.978 356.281,90.132 356.127,90.272 C355.567,90.748 354.769,91.154 353.719,91.154 C351.787,91.154 350.443,89.614 350.443,87.766 Z M352.291,86.954 L354.909,86.954 C354.881,86.324 354.377,85.834 353.663,85.834 C352.879,85.834 352.375,86.31 352.291,86.954 Z M357.989,90.692 C357.989,90.86 358.143,91 358.297,91 L359.403,91 C359.655,91 359.739,90.874 359.739,90.692 L359.739,87.122 C359.907,86.464 360.327,85.988 361.083,85.988 C361.853,85.988 362.259,86.534 362.259,87.43 L362.259,90.692 C362.259,90.86 362.399,91 362.567,91 L363.701,91 C363.855,91 364.009,90.86 364.009,90.692 L364.009,87.444 C364.009,85.82 363.449,84.392 361.391,84.392 C360.621,84.392 360.061,84.658 359.739,84.938 L359.739,81.508 C359.739,81.354 359.599,81.2 359.431,81.2 L358.297,81.2 C358.143,81.2 357.989,81.354 357.989,81.508 L357.989,90.692 Z M365.325,87.752 C365.325,85.932 366.809,84.392 368.629,84.392 C370.463,84.392 371.947,85.932 371.947,87.752 C371.947,89.6 370.463,91.154 368.629,91.154 C366.809,91.154 365.325,89.6 365.325,87.752 Z M366.949,87.752 C366.949,88.746 367.691,89.558 368.629,89.558 C369.567,89.558 370.323,88.746 370.323,87.752 C370.323,86.772 369.567,85.988 368.629,85.988 C367.691,85.988 366.949,86.772 366.949,87.752 Z M373.263,88.27 C373.263,89.908 373.697,91.154 375.699,91.154 C376.693,91.154 377.365,90.566 377.701,90.216 L377.883,90.762 C377.925,90.888 378.037,91 378.191,91 L378.695,91 C378.863,91 379.003,90.86 379.003,90.692 L379.003,84.84 C379.003,84.658 378.863,84.532 378.695,84.532 L377.603,84.532 C377.337,84.532 377.253,84.588 377.253,84.84 L377.253,88.354 C377.155,88.914 376.819,89.558 376.105,89.558 C375.307,89.558 375.013,89.124 375.013,88.27 L375.013,84.84 C375.013,84.658 374.873,84.532 374.705,84.532 L373.571,84.532 C373.403,84.532 373.263,84.658 373.263,84.84 L373.263,88.27 Z M382.713,91.154 C384.337,91.154 385.205,90.244 385.205,89.222 C385.205,87.934 384.309,87.486 383.063,86.982 C382.461,86.73 382.139,86.576 382.139,86.282 C382.139,86.072 382.321,85.862 382.755,85.862 C383.287,85.862 383.735,86.044 384.043,86.184 C384.183,86.24 384.351,86.212 384.449,86.058 L384.813,85.316 C384.897,85.148 384.813,84.98 384.673,84.868 C384.323,84.644 383.707,84.392 382.755,84.392 C381.173,84.392 380.431,85.302 380.431,86.282 C380.431,87.262 380.991,87.85 382.237,88.326 C383.091,88.662 383.455,88.928 383.455,89.222 C383.455,89.502 383.231,89.684 382.741,89.684 C382.069,89.684 381.607,89.446 381.313,89.264 C381.159,89.166 381.005,89.222 380.935,89.376 L380.515,90.216 C380.445,90.356 380.515,90.51 380.599,90.566 C380.963,90.818 381.635,91.154 382.713,91.154 Z M386.185,87.766 C386.185,85.946 387.529,84.392 389.447,84.392 C391.127,84.392 392.415,85.638 392.415,87.388 C392.415,87.486 392.401,87.71 392.387,87.808 C392.373,87.976 392.219,88.102 392.079,88.102 L387.935,88.102 C387.949,88.9 388.607,89.6 389.545,89.6 C390.189,89.6 390.637,89.362 390.931,89.124 C391.085,88.998 391.253,88.984 391.351,89.124 L391.897,89.852 C392.009,89.978 392.023,90.132 391.869,90.272 C391.309,90.748 390.511,91.154 389.461,91.154 C387.529,91.154 386.185,89.614 386.185,87.766 Z M388.033,86.954 L390.651,86.954 C390.623,86.324 390.119,85.834 389.405,85.834 C388.621,85.834 388.117,86.31 388.033,86.954 Z M395.649,91.154 C397.273,91.154 398.141,90.244 398.141,89.222 C398.141,87.934 397.245,87.486 395.999,86.982 C395.397,86.73 395.075,86.576 395.075,86.282 C395.075,86.072 395.257,85.862 395.691,85.862 C396.223,85.862 396.671,86.044 396.979,86.184 C397.119,86.24 397.287,86.212 397.385,86.058 L397.749,85.316 C397.833,85.148 397.749,84.98 397.609,84.868 C397.259,84.644 396.643,84.392 395.691,84.392 C394.109,84.392 393.367,85.302 393.367,86.282 C393.367,87.262 393.927,87.85 395.173,88.326 C396.027,88.662 396.391,88.928 396.391,89.222 C396.391,89.502 396.167,89.684 395.677,89.684 C395.005,89.684 394.543,89.446 394.249,89.264 C394.095,89.166 393.941,89.222 393.871,89.376 L393.451,90.216 C393.381,90.356 393.451,90.51 393.535,90.566 C393.899,90.818 394.571,91.154 395.649,91.154 Z" id="Warehouses" fill="#000000"></path>
                    <path d="M481.874,91.14 C483.848,91.14 485.094,89.81 485.094,88.368 C485.094,86.562 483.526,85.75 482.168,85.204 C481.034,84.742 480.516,84.294 480.516,83.636 C480.516,83.104 480.95,82.656 481.748,82.656 C482.518,82.656 483.092,83.048 483.694,83.426 C483.862,83.538 484.072,83.426 484.184,83.258 L484.716,82.46 C484.814,82.32 484.772,82.082 484.632,81.998 C484.352,81.788 483.26,81.06 481.832,81.06 C479.606,81.06 478.682,82.502 478.682,83.748 C478.682,85.4 479.998,86.24 481.314,86.772 C482.49,87.248 483.092,87.738 483.092,88.452 C483.092,89.054 482.546,89.53 481.818,89.53 C480.908,89.53 480.278,89.096 479.704,88.662 C479.578,88.564 479.34,88.564 479.228,88.76 L478.724,89.628 C478.598,89.852 478.654,89.936 478.794,90.048 C479.2,90.398 480.11,91.14 481.874,91.14 Z M486.466,88.27 C486.466,89.908 486.9,91.154 488.902,91.154 C489.896,91.154 490.568,90.566 490.904,90.216 L491.086,90.762 C491.128,90.888 491.24,91 491.394,91 L491.898,91 C492.066,91 492.206,90.86 492.206,90.692 L492.206,84.84 C492.206,84.658 492.066,84.532 491.898,84.532 L490.806,84.532 C490.54,84.532 490.456,84.588 490.456,84.84 L490.456,88.354 C490.358,88.914 490.022,89.558 489.308,89.558 C488.51,89.558 488.216,89.124 488.216,88.27 L488.216,84.84 C488.216,84.658 488.076,84.532 487.908,84.532 L486.774,84.532 C486.606,84.532 486.466,84.658 486.466,84.84 L486.466,88.27 Z M500.508,87.78 C500.508,89.67 499.234,91.154 497.302,91.154 C496.658,91.154 496.042,91 495.748,90.888 L495.748,94.024 C495.748,94.178 495.594,94.332 495.44,94.332 L494.306,94.332 C494.138,94.332 493.998,94.178 493.998,94.024 L493.998,84.84 C493.998,84.672 494.138,84.532 494.306,84.532 L494.824,84.532 C494.978,84.532 495.076,84.658 495.132,84.84 L495.3,85.358 C495.3,85.358 496.042,84.392 497.414,84.392 C499.178,84.392 500.508,85.82 500.508,87.78 Z M495.748,86.884 L495.748,89.194 C495.748,89.194 496.28,89.558 497.092,89.558 C498.156,89.558 498.702,88.69 498.702,87.78 C498.702,86.87 498.184,85.988 497.176,85.988 C496.336,85.988 495.888,86.52 495.748,86.884 Z M501.53,87.766 C501.53,85.946 502.874,84.392 504.792,84.392 C506.472,84.392 507.76,85.638 507.76,87.388 C507.76,87.486 507.746,87.71 507.732,87.808 C507.718,87.976 507.564,88.102 507.424,88.102 L503.28,88.102 C503.294,88.9 503.952,89.6 504.89,89.6 C505.534,89.6 505.982,89.362 506.276,89.124 C506.43,88.998 506.598,88.984 506.696,89.124 L507.242,89.852 C507.354,89.978 507.368,90.132 507.214,90.272 C506.654,90.748 505.856,91.154 504.806,91.154 C502.874,91.154 501.53,89.614 501.53,87.766 Z M503.378,86.954 L505.996,86.954 C505.968,86.324 505.464,85.834 504.75,85.834 C503.966,85.834 503.462,86.31 503.378,86.954 Z M509.076,90.692 C509.076,90.86 509.23,91 509.384,91 L510.462,91 C510.672,91 510.826,90.93 510.826,90.692 L510.826,86.66 C510.938,86.436 511.358,85.988 512.058,85.988 C512.352,85.988 512.506,86.044 512.66,86.114 C512.814,86.184 512.968,86.128 513.038,85.974 L513.458,85.022 C513.64,84.602 513.01,84.392 512.24,84.392 C511.246,84.392 510.644,85.05 510.42,85.372 L510.182,84.742 C510.126,84.602 510.056,84.532 509.902,84.532 L509.384,84.532 C509.23,84.532 509.076,84.658 509.076,84.84 L509.076,90.692 Z M514.494,90.692 C514.494,90.86 514.648,91 514.802,91 L515.936,91 C516.09,91 516.244,90.86 516.244,90.692 L516.244,86.996 C516.398,86.548 516.692,85.988 517.49,85.988 C518.316,85.988 518.554,86.506 518.554,87.346 L518.554,90.692 C518.554,90.86 518.68,91 518.862,91 L520.01,91 C520.164,91 520.318,90.86 520.318,90.692 L520.318,87.276 C520.318,86.982 520.29,86.66 520.29,86.66 C520.29,86.66 520.556,85.988 521.494,85.988 C522.306,85.988 522.614,86.506 522.614,87.346 L522.614,90.692 C522.614,90.86 522.754,91 522.922,91 L524.042,91 C524.224,91 524.364,90.86 524.364,90.692 L524.364,87.388 C524.364,85.708 523.874,84.392 521.802,84.392 C520.64,84.392 519.996,85.078 519.716,85.372 C519.184,84.728 518.722,84.392 517.784,84.392 C516.65,84.392 516.076,85.022 515.81,85.33 L515.572,84.714 C515.544,84.602 515.446,84.532 515.306,84.532 L514.802,84.532 C514.648,84.532 514.494,84.658 514.494,84.84 L514.494,90.692 Z M525.638,88.942 C525.638,87.794 526.576,86.912 528.214,86.912 C528.872,86.912 529.46,87.094 529.46,87.094 C529.488,86.268 529.25,85.876 528.564,85.876 C527.976,85.876 527.122,86.002 526.744,86.114 C526.534,86.184 526.408,86.03 526.38,85.834 L526.24,85.106 C526.184,84.868 526.31,84.756 526.45,84.714 C526.59,84.658 527.612,84.392 528.662,84.392 C530.678,84.392 531.098,85.442 531.098,87.206 L531.098,90.692 C531.098,90.86 530.958,91 530.79,91 L530.314,91 C530.202,91 530.118,90.958 530.034,90.776 L529.852,90.342 C529.474,90.706 528.83,91.154 527.822,91.154 C526.534,91.154 525.638,90.328 525.638,88.942 Z M527.318,88.942 C527.318,89.488 527.654,89.852 528.256,89.852 C528.83,89.852 529.334,89.404 529.418,89.166 L529.418,88.214 C529.418,88.214 528.984,88.018 528.466,88.018 C527.724,88.018 527.318,88.368 527.318,88.942 Z M532.834,90.692 C532.834,90.86 532.988,91 533.142,91 L534.22,91 C534.43,91 534.584,90.93 534.584,90.692 L534.584,86.66 C534.696,86.436 535.116,85.988 535.816,85.988 C536.11,85.988 536.264,86.044 536.418,86.114 C536.572,86.184 536.726,86.128 536.796,85.974 L537.216,85.022 C537.398,84.602 536.768,84.392 535.998,84.392 C535.004,84.392 534.402,85.05 534.178,85.372 L533.94,84.742 C533.884,84.602 533.814,84.532 533.66,84.532 L533.142,84.532 C532.988,84.532 532.834,84.658 532.834,84.84 L532.834,90.692 Z M538.252,90.692 C538.252,90.86 538.406,91 538.56,91 L539.694,91 C539.862,91 540.002,90.86 540.002,90.692 L540.002,87.962 L542.438,90.874 C542.48,90.944 542.606,91 542.718,91 L544.09,91 C544.356,91 544.454,90.72 544.286,90.538 L541.598,87.528 L544.16,85.008 C544.314,84.826 544.216,84.532 543.95,84.532 L542.634,84.532 C542.452,84.532 542.34,84.63 542.228,84.728 L540.002,86.982 L540.002,81.508 C540.002,81.354 539.862,81.2 539.694,81.2 L538.56,81.2 C538.406,81.2 538.252,81.354 538.252,81.508 L538.252,90.692 Z M545.098,87.766 C545.098,85.946 546.442,84.392 548.36,84.392 C550.04,84.392 551.328,85.638 551.328,87.388 C551.328,87.486 551.314,87.71 551.3,87.808 C551.286,87.976 551.132,88.102 550.992,88.102 L546.848,88.102 C546.862,88.9 547.52,89.6 548.458,89.6 C549.102,89.6 549.55,89.362 549.844,89.124 C549.998,88.998 550.166,88.984 550.264,89.124 L550.81,89.852 C550.922,89.978 550.936,90.132 550.782,90.272 C550.222,90.748 549.424,91.154 548.374,91.154 C546.442,91.154 545.098,89.614 545.098,87.766 Z M546.946,86.954 L549.564,86.954 C549.536,86.324 549.032,85.834 548.318,85.834 C547.534,85.834 547.03,86.31 546.946,86.954 Z M553.078,89.068 C553.078,90.188 553.442,91.154 554.884,91.154 C555.556,91.154 556.48,90.86 556.704,90.734 C556.858,90.65 556.928,90.524 556.886,90.356 L556.704,89.502 C556.676,89.348 556.522,89.264 556.34,89.334 C556.172,89.39 555.64,89.544 555.36,89.544 C555.038,89.544 554.828,89.446 554.828,89.012 L554.828,86.1 L556.34,86.1 C556.508,86.1 556.648,85.946 556.648,85.792 L556.648,84.84 C556.648,84.658 556.508,84.532 556.34,84.532 L554.828,84.532 L554.828,82.74 C554.828,82.572 554.702,82.432 554.534,82.432 L553.386,82.432 C553.232,82.432 553.078,82.572 553.078,82.74 L553.078,84.532 L552.448,84.532 C552.28,84.532 552.154,84.658 552.154,84.84 L552.154,85.792 C552.154,85.946 552.28,86.1 552.448,86.1 L553.078,86.1 L553.078,89.068 Z M560.022,91.154 C561.646,91.154 562.514,90.244 562.514,89.222 C562.514,87.934 561.618,87.486 560.372,86.982 C559.77,86.73 559.448,86.576 559.448,86.282 C559.448,86.072 559.63,85.862 560.064,85.862 C560.596,85.862 561.044,86.044 561.352,86.184 C561.492,86.24 561.66,86.212 561.758,86.058 L562.122,85.316 C562.206,85.148 562.122,84.98 561.982,84.868 C561.632,84.644 561.016,84.392 560.064,84.392 C558.482,84.392 557.74,85.302 557.74,86.282 C557.74,87.262 558.3,87.85 559.546,88.326 C560.4,88.662 560.764,88.928 560.764,89.222 C560.764,89.502 560.54,89.684 560.05,89.684 C559.378,89.684 558.916,89.446 558.622,89.264 C558.468,89.166 558.314,89.222 558.244,89.376 L557.824,90.216 C557.754,90.356 557.824,90.51 557.908,90.566 C558.272,90.818 558.944,91.154 560.022,91.154 Z" id="Supermarkets" fill="#000000"></path>
                    <path d="M696.044,188.734 C696.044,188.874 696.156,189 696.31,189 L697.598,189 C697.738,189 697.864,188.874 697.864,188.734 L697.864,184.268 L701.098,179.606 C701.21,179.424 701.098,179.2 700.874,179.2 L699.432,179.2 C699.32,179.2 699.25,179.27 699.208,179.326 L696.968,182.546 L694.728,179.326 C694.686,179.27 694.616,179.2 694.504,179.2 L693.076,179.2 C692.852,179.2 692.74,179.424 692.852,179.606 L696.044,184.282 L696.044,188.734 Z M701.616,185.752 C701.616,183.932 703.1,182.392 704.92,182.392 C706.754,182.392 708.238,183.932 708.238,185.752 C708.238,187.6 706.754,189.154 704.92,189.154 C703.1,189.154 701.616,187.6 701.616,185.752 Z M703.24,185.752 C703.24,186.746 703.982,187.558 704.92,187.558 C705.858,187.558 706.614,186.746 706.614,185.752 C706.614,184.772 705.858,183.988 704.92,183.988 C703.982,183.988 703.24,184.772 703.24,185.752 Z M709.554,186.27 C709.554,187.908 709.988,189.154 711.99,189.154 C712.984,189.154 713.656,188.566 713.992,188.216 L714.174,188.762 C714.216,188.888 714.328,189 714.482,189 L714.986,189 C715.154,189 715.294,188.86 715.294,188.692 L715.294,182.84 C715.294,182.658 715.154,182.532 714.986,182.532 L713.894,182.532 C713.628,182.532 713.544,182.588 713.544,182.84 L713.544,186.354 C713.446,186.914 713.11,187.558 712.396,187.558 C711.598,187.558 711.304,187.124 711.304,186.27 L711.304,182.84 C711.304,182.658 711.164,182.532 710.996,182.532 L709.862,182.532 C709.694,182.532 709.554,182.658 709.554,182.84 L709.554,186.27 Z" id="You" fill="#000000"></path>
                </g>
            </g>
        </g>
    </g>
</svg>