<svg width="24" height="24" viewBox="0 0 24 24" xmlns="http://www.w3.org/2000/svg"><title>Footer</title><path d="M22.604 5.436a8.57 8.57 0 0 1-2.504.699 4.434 4.434 0 0 0 1.917-2.455 8.636 8.636 0 0 1-2.769 1.077 4.319 4.319 0 0 0-3.182-1.401c-2.408 0-4.36 1.987-4.36 4.437 0 .348.039.686.113 1.011-3.623-.185-6.836-1.951-8.986-4.636a4.476 4.476 0 0 0-.59 2.23c0 1.54.77 2.898 1.939 3.694a4.287 4.287 0 0 1-1.975-.555v.056c0 2.15 1.503 3.943 3.497 4.351a4.304 4.304 0 0 1-1.969.076c.555 1.763 2.165 3.046 4.073 3.08a8.65 8.65 0 0 1-6.455 1.838 12.184 12.184 0 0 0 6.684 1.994c8.02 0 12.404-6.762 12.404-12.625 0-.192-.004-.384-.012-.574a8.94 8.94 0 0 0 2.175-2.298z" fill="#000" fill-rule="evenodd"/></svg>
