<svg width="24" height="24" viewBox="0 0 24 24" xmlns="http://www.w3.org/2000/svg"><title>38-instagram</title><g fill="#000" fill-rule="evenodd"><path d="M12.096 5.976c-3.36 0-6.144 2.683-6.144 6.024s2.736 6.024 6.144 6.024S18.24 15.294 18.24 12s-2.784-6.024-6.144-6.024zm0 9.883c-2.16 0-3.936-1.741-3.936-3.859s1.776-3.859 3.936-3.859S16.032 9.882 16.032 12s-1.776 3.859-3.936 3.859z"/><ellipse cx="18.48" cy="5.835" rx="1.392" ry="1.365"/><path d="M22.08 2.306c-1.248-1.27-3.024-1.93-5.04-1.93H7.152C2.976.376.192 3.106.192 7.2v9.647c0 2.024.672 3.765 2.016 5.035 1.296 1.224 3.024 1.836 4.992 1.836h9.792c2.064 0 3.792-.66 5.04-1.836C23.328 20.66 24 18.918 24 16.894V7.2c0-1.976-.672-3.67-1.92-4.894zm-.288 14.588c0 1.459-.432 2.635-1.296 3.435-.864.8-2.064 1.224-3.504 1.224H7.2c-1.44 0-2.64-.424-3.504-1.224-.864-.847-1.296-2.023-1.296-3.482V7.2c0-1.412.432-2.588 1.296-3.435.816-.8 2.064-1.224 3.504-1.224h9.888c1.44 0 2.64.424 3.504 1.27.816.848 1.296 2.024 1.296 3.389v9.694h-.096z"/></g></svg>
